{
	"asset":{
		"generator":"Khronos glTF Blender I/O v4.1.63",
		"version":"2.0"
	},
	"extensionsUsed":[
		"KHR_materials_unlit"
	],
	"scene":0,
	"scenes":[
		{
			"name":"Scene",
			"nodes":[
				0
			]
		}
	],
	"nodes":[
		{
			"mesh":0,
			"name":"Science lvl 3_genericEU_0",
			"scale":[
				0.009999999776482582,
				0.010000001639127731,
				0.010000001639127731
			]
		}
	],
	"materials":[
		{
			"doubleSided":true,
			"extensions":{
				"KHR_materials_unlit":{}
			},
			"name":"genericEU",
			"pbrMetallicRoughness":{
				"baseColorTexture":{
					"index":0
				},
				"metallicFactor":0,
				"roughnessFactor":0.9
			}
		}
	],
	"meshes":[
		{
			"name":"Science lvl 3_genericEU_0",
			"primitives":[
				{
					"attributes":{
						"POSITION":0,
						"NORMAL":1,
						"TEXCOORD_0":2,
						"TEXCOORD_1":3,
						"TEXCOORD_2":4,
						"TEXCOORD_3":5,
						"TEXCOORD_4":6,
						"TEXCOORD_5":7,
						"TEXCOORD_6":8,
						"TEXCOORD_7":9
					},
					"indices":10,
					"material":0
				}
			]
		}
	],
	"textures":[
		{
			"sampler":0,
			"source":0
		}
	],
	"images":[
		{
			"mimeType":"image/png",
			"name":"genericEU_baseColor",
			"uri":"genericEU_baseColor.png"
		}
	],
	"accessors":[
		{
			"bufferView":0,
			"componentType":5126,
			"count":1726,
			"max":[
				0.8213374614715576,
				0.28280889987945557,
				-0.37156957387924194
			],
			"min":[
				0.17955249547958374,
				-0.00012374669313430786,
				-0.6390247344970703
			],
			"type":"VEC3"
		},
		{
			"bufferView":1,
			"componentType":5126,
			"count":1726,
			"type":"VEC3"
		},
		{
			"bufferView":2,
			"componentType":5126,
			"count":1726,
			"type":"VEC2"
		},
		{
			"bufferView":3,
			"componentType":5126,
			"count":1726,
			"type":"VEC2"
		},
		{
			"bufferView":4,
			"componentType":5126,
			"count":1726,
			"type":"VEC2"
		},
		{
			"bufferView":5,
			"componentType":5126,
			"count":1726,
			"type":"VEC2"
		},
		{
			"bufferView":6,
			"componentType":5126,
			"count":1726,
			"type":"VEC2"
		},
		{
			"bufferView":7,
			"componentType":5126,
			"count":1726,
			"type":"VEC2"
		},
		{
			"bufferView":8,
			"componentType":5126,
			"count":1726,
			"type":"VEC2"
		},
		{
			"bufferView":9,
			"componentType":5126,
			"count":1726,
			"type":"VEC2"
		},
		{
			"bufferView":10,
			"componentType":5123,
			"count":3459,
			"type":"SCALAR"
		}
	],
	"bufferViews":[
		{
			"buffer":0,
			"byteLength":20712,
			"byteOffset":0,
			"target":34962
		},
		{
			"buffer":0,
			"byteLength":20712,
			"byteOffset":20712,
			"target":34962
		},
		{
			"buffer":0,
			"byteLength":13808,
			"byteOffset":41424,
			"target":34962
		},
		{
			"buffer":0,
			"byteLength":13808,
			"byteOffset":55232,
			"target":34962
		},
		{
			"buffer":0,
			"byteLength":13808,
			"byteOffset":69040,
			"target":34962
		},
		{
			"buffer":0,
			"byteLength":13808,
			"byteOffset":82848,
			"target":34962
		},
		{
			"buffer":0,
			"byteLength":13808,
			"byteOffset":96656,
			"target":34962
		},
		{
			"buffer":0,
			"byteLength":13808,
			"byteOffset":110464,
			"target":34962
		},
		{
			"buffer":0,
			"byteLength":13808,
			"byteOffset":124272,
			"target":34962
		},
		{
			"buffer":0,
			"byteLength":13808,
			"byteOffset":138080,
			"target":34962
		},
		{
			"buffer":0,
			"byteLength":6918,
			"byteOffset":151888,
			"target":34963
		}
	],
	"samplers":[
		{
			"magFilter":9729,
			"minFilter":9987
		}
	],
	"buffers":[
		{
			"byteLength":158808,
			"uri":"museum.bin"
		}
	]
}
