{
	"asset":{
		"generator":"Khronos glTF Blender I/O v4.1.63",
		"version":"2.0"
	},
	"scene":0,
	"scenes":[
		{
			"name":"Scene",
			"nodes":[
				0,
				1,
				2,
				3,
				4,
				5,
				6,
				7
			]
		}
	],
	"nodes":[
		{
			"mesh":0,
			"name":"Object_4",
			"translation":[
				20,
				0,
				-30.00000762939453
			]
		},
		{
			"mesh":1,
			"name":"Object_6",
			"translation":[
				20,
				0,
				-70.00001525878906
			]
		},
		{
			"mesh":2,
			"name":"Object_8"
		},
		{
			"mesh":3,
			"name":"Object_10",
			"translation":[
				20,
				0,
				0
			]
		},
		{
			"mesh":4,
			"name":"Object_18",
			"translation":[
				0,
				0,
				-60.00001525878906
			]
		},
		{
			"mesh":5,
			"name":"Object_12",
			"translation":[
				20,
				0,
				-50.0000114440918
			]
		},
		{
			"mesh":6,
			"name":"Object_14",
			"translation":[
				0,
				0,
				-40.00000762939453
			]
		},
		{
			"mesh":7,
			"name":"Object_16",
			"translation":[
				0,
				0,
				-30.00000762939453
			]
		}
	],
	"materials":[
		{
			"doubleSided":true,
			"name":"ModularRoads",
			"pbrMetallicRoughness":{
				"baseColorTexture":{
					"index":0
				},
				"metallicFactor":0,
				"roughnessFactor":0.5
			}
		}
	],
	"meshes":[
		{
			"name":"Object_0",
			"primitives":[
				{
					"attributes":{
						"POSITION":0,
						"NORMAL":1,
						"TEXCOORD_0":2
					},
					"indices":3,
					"material":0
				}
			]
		},
		{
			"name":"Object_1",
			"primitives":[
				{
					"attributes":{
						"POSITION":4,
						"NORMAL":5,
						"TEXCOORD_0":6
					},
					"indices":7,
					"material":0
				}
			]
		},
		{
			"name":"Object_2",
			"primitives":[
				{
					"attributes":{
						"POSITION":8,
						"NORMAL":9,
						"TEXCOORD_0":10
					},
					"indices":3,
					"material":0
				}
			]
		},
		{
			"name":"Object_3",
			"primitives":[
				{
					"attributes":{
						"POSITION":11,
						"NORMAL":12,
						"TEXCOORD_0":13
					},
					"indices":14,
					"material":0
				}
			]
		},
		{
			"name":"Object_7",
			"primitives":[
				{
					"attributes":{
						"POSITION":15,
						"NORMAL":16,
						"TEXCOORD_0":17
					},
					"indices":18,
					"material":0
				}
			]
		},
		{
			"name":"Object_4",
			"primitives":[
				{
					"attributes":{
						"POSITION":19,
						"NORMAL":20,
						"TEXCOORD_0":21
					},
					"indices":14,
					"material":0
				}
			]
		},
		{
			"name":"Object_5",
			"primitives":[
				{
					"attributes":{
						"POSITION":22,
						"NORMAL":23,
						"TEXCOORD_0":24
					},
					"indices":25,
					"material":0
				}
			]
		},
		{
			"name":"Object_6",
			"primitives":[
				{
					"attributes":{
						"POSITION":26,
						"NORMAL":27,
						"TEXCOORD_0":28
					},
					"indices":29,
					"material":0
				}
			]
		}
	],
	"textures":[
		{
			"sampler":0,
			"source":0
		}
	],
	"images":[
		{
			"mimeType":"image/png",
			"name":"ModularRoads_baseColor",
			"uri":"ModularRoads_baseColor.png"
		}
	],
	"accessors":[
		{
			"bufferView":0,
			"componentType":5126,
			"count":164,
			"max":[
				3.8941436741879443e-07,
				0.3135872185230255,
				5.245366310191457e-07
			],
			"min":[
				-12.000000953674316,
				0.11358721554279327,
				-12
			],
			"type":"VEC3"
		},
		{
			"bufferView":1,
			"componentType":5126,
			"count":164,
			"type":"VEC3"
		},
		{
			"bufferView":2,
			"componentType":5126,
			"count":164,
			"type":"VEC2"
		},
		{
			"bufferView":3,
			"componentType":5123,
			"count":294,
			"type":"SCALAR"
		},
		{
			"bufferView":4,
			"componentType":5126,
			"count":92,
			"max":[
				0,
				0.2999230921268463,
				0
			],
			"min":[
				-12.000001907348633,
				0,
				-12
			],
			"type":"VEC3"
		},
		{
			"bufferView":5,
			"componentType":5126,
			"count":92,
			"type":"VEC3"
		},
		{
			"bufferView":6,
			"componentType":5126,
			"count":92,
			"type":"VEC2"
		},
		{
			"bufferView":7,
			"componentType":5123,
			"count":132,
			"type":"SCALAR"
		},
		{
			"bufferView":8,
			"componentType":5126,
			"count":164,
			"max":[
				3.894142253102473e-07,
				0.3135540783405304,
				5.245366310191457e-07
			],
			"min":[
				-12,
				0.11355407536029816,
				-12
			],
			"type":"VEC3"
		},
		{
			"bufferView":9,
			"componentType":5126,
			"count":164,
			"type":"VEC3"
		},
		{
			"bufferView":10,
			"componentType":5126,
			"count":164,
			"type":"VEC2"
		},
		{
			"bufferView":11,
			"componentType":5126,
			"count":28,
			"max":[
				0,
				0.2996666729450226,
				5.245366310191457e-07
			],
			"min":[
				-12.000000953674316,
				0,
				-23.999998092651367
			],
			"type":"VEC3"
		},
		{
			"bufferView":12,
			"componentType":5126,
			"count":28,
			"type":"VEC3"
		},
		{
			"bufferView":13,
			"componentType":5126,
			"count":28,
			"type":"VEC2"
		},
		{
			"bufferView":14,
			"componentType":5123,
			"count":42,
			"type":"SCALAR"
		},
		{
			"bufferView":15,
			"componentType":5126,
			"count":224,
			"max":[
				1.9073486328125e-06,
				0.2996666729450226,
				0
			],
			"min":[
				-24.00000762939453,
				0,
				-23.999998092651367
			],
			"type":"VEC3"
		},
		{
			"bufferView":16,
			"componentType":5126,
			"count":224,
			"type":"VEC3"
		},
		{
			"bufferView":17,
			"componentType":5126,
			"count":224,
			"type":"VEC2"
		},
		{
			"bufferView":18,
			"componentType":5123,
			"count":336,
			"type":"SCALAR"
		},
		{
			"bufferView":19,
			"componentType":5126,
			"count":28,
			"max":[
				0,
				0.2996666729450226,
				5.245366310191457e-07
			],
			"min":[
				-12.000000953674316,
				0,
				-11.999996185302734
			],
			"type":"VEC3"
		},
		{
			"bufferView":20,
			"componentType":5126,
			"count":28,
			"type":"VEC3"
		},
		{
			"bufferView":21,
			"componentType":5126,
			"count":28,
			"type":"VEC2"
		},
		{
			"bufferView":22,
			"componentType":5126,
			"count":113,
			"max":[
				0,
				0.30023813247680664,
				5.245366310191457e-07
			],
			"min":[
				-12.000000953674316,
				0,
				-12
			],
			"type":"VEC3"
		},
		{
			"bufferView":23,
			"componentType":5126,
			"count":113,
			"type":"VEC3"
		},
		{
			"bufferView":24,
			"componentType":5126,
			"count":113,
			"type":"VEC2"
		},
		{
			"bufferView":25,
			"componentType":5123,
			"count":210,
			"type":"SCALAR"
		},
		{
			"bufferView":26,
			"componentType":5126,
			"count":139,
			"max":[
				0,
				0.2996666431427002,
				12.000000953674316
			],
			"min":[
				-12.000001907348633,
				0,
				0
			],
			"type":"VEC3"
		},
		{
			"bufferView":27,
			"componentType":5126,
			"count":139,
			"type":"VEC3"
		},
		{
			"bufferView":28,
			"componentType":5126,
			"count":139,
			"type":"VEC2"
		},
		{
			"bufferView":29,
			"componentType":5123,
			"count":207,
			"type":"SCALAR"
		}
	],
	"bufferViews":[
		{
			"buffer":0,
			"byteLength":1968,
			"byteOffset":0,
			"target":34962
		},
		{
			"buffer":0,
			"byteLength":1968,
			"byteOffset":1968,
			"target":34962
		},
		{
			"buffer":0,
			"byteLength":1312,
			"byteOffset":3936,
			"target":34962
		},
		{
			"buffer":0,
			"byteLength":588,
			"byteOffset":5248,
			"target":34963
		},
		{
			"buffer":0,
			"byteLength":1104,
			"byteOffset":5836,
			"target":34962
		},
		{
			"buffer":0,
			"byteLength":1104,
			"byteOffset":6940,
			"target":34962
		},
		{
			"buffer":0,
			"byteLength":736,
			"byteOffset":8044,
			"target":34962
		},
		{
			"buffer":0,
			"byteLength":264,
			"byteOffset":8780,
			"target":34963
		},
		{
			"buffer":0,
			"byteLength":1968,
			"byteOffset":9044,
			"target":34962
		},
		{
			"buffer":0,
			"byteLength":1968,
			"byteOffset":11012,
			"target":34962
		},
		{
			"buffer":0,
			"byteLength":1312,
			"byteOffset":12980,
			"target":34962
		},
		{
			"buffer":0,
			"byteLength":336,
			"byteOffset":14292,
			"target":34962
		},
		{
			"buffer":0,
			"byteLength":336,
			"byteOffset":14628,
			"target":34962
		},
		{
			"buffer":0,
			"byteLength":224,
			"byteOffset":14964,
			"target":34962
		},
		{
			"buffer":0,
			"byteLength":84,
			"byteOffset":15188,
			"target":34963
		},
		{
			"buffer":0,
			"byteLength":2688,
			"byteOffset":15272,
			"target":34962
		},
		{
			"buffer":0,
			"byteLength":2688,
			"byteOffset":17960,
			"target":34962
		},
		{
			"buffer":0,
			"byteLength":1792,
			"byteOffset":20648,
			"target":34962
		},
		{
			"buffer":0,
			"byteLength":672,
			"byteOffset":22440,
			"target":34963
		},
		{
			"buffer":0,
			"byteLength":336,
			"byteOffset":23112,
			"target":34962
		},
		{
			"buffer":0,
			"byteLength":336,
			"byteOffset":23448,
			"target":34962
		},
		{
			"buffer":0,
			"byteLength":224,
			"byteOffset":23784,
			"target":34962
		},
		{
			"buffer":0,
			"byteLength":1356,
			"byteOffset":24008,
			"target":34962
		},
		{
			"buffer":0,
			"byteLength":1356,
			"byteOffset":25364,
			"target":34962
		},
		{
			"buffer":0,
			"byteLength":904,
			"byteOffset":26720,
			"target":34962
		},
		{
			"buffer":0,
			"byteLength":420,
			"byteOffset":27624,
			"target":34963
		},
		{
			"buffer":0,
			"byteLength":1668,
			"byteOffset":28044,
			"target":34962
		},
		{
			"buffer":0,
			"byteLength":1668,
			"byteOffset":29712,
			"target":34962
		},
		{
			"buffer":0,
			"byteLength":1112,
			"byteOffset":31380,
			"target":34962
		},
		{
			"buffer":0,
			"byteLength":414,
			"byteOffset":32492,
			"target":34963
		}
	],
	"samplers":[
		{
			"magFilter":9729,
			"minFilter":9987
		}
	],
	"buffers":[
		{
			"byteLength":32908,
			"uri":"roads.bin"
		}
	]
}
