{
	"asset":{
		"generator":"Khronos glTF Blender I/O v4.1.63",
		"version":"2.0"
	},
	"scene":0,
	"scenes":[
		{
			"name":"Scene",
			"nodes":[
				4
			]
		}
	],
	"nodes":[
		{
			"mesh":0,
			"name":"Circle.001_Chimney_0"
		},
		{
			"mesh":1,
			"name":"Circle.001_House_0"
		},
		{
			"mesh":2,
			"name":"Circle.001_Roof_0"
		},
		{
			"mesh":3,
			"name":"Circle.001_Window_0"
		},
		{
			"children":[
				0,
				1,
				2,
				3
			],
			"name":"Circle.001",
			"rotation":[
				0,
				0,
				-0.7071068286895752,
				0.7071068286895752
			],
			"translation":[
				0,
				8.999998092651367,
				-23.03631591796875
			]
		}
	],
	"materials":[
		{
			"doubleSided":true,
			"name":"Chimney",
			"pbrMetallicRoughness":{
				"baseColorFactor":[
					0.14978335797786713,
					0.14978335797786713,
					0.14978335797786713,
					1
				],
				"metallicFactor":0,
				"roughnessFactor":0.8040408492088318
			}
		},
		{
			"doubleSided":true,
			"name":"House",
			"normalTexture":{
				"index":0,
				"scale":0.29100000858306885
			},
			"pbrMetallicRoughness":{
				"baseColorTexture":{
					"index":1
				},
				"metallicFactor":0.33126333355903625,
				"roughnessFactor":0.9273819923400879
			}
		},
		{
			"doubleSided":true,
			"name":"Roof",
			"pbrMetallicRoughness":{
				"baseColorTexture":{
					"index":2
				},
				"metallicFactor":0,
				"roughnessFactor":0.9883236885070801
			}
		},
		{
			"doubleSided":true,
			"name":"Window",
			"pbrMetallicRoughness":{
				"baseColorTexture":{
					"index":3
				},
				"metallicFactor":0.5116878747940063,
				"roughnessFactor":0.30788761377334595
			}
		}
	],
	"meshes":[
		{
			"name":"Circle.001_Chimney_0",
			"primitives":[
				{
					"attributes":{
						"POSITION":0,
						"NORMAL":1,
						"TEXCOORD_0":2
					},
					"indices":3,
					"material":0
				}
			]
		},
		{
			"name":"Circle.001_House_0",
			"primitives":[
				{
					"attributes":{
						"POSITION":4,
						"NORMAL":5,
						"TEXCOORD_0":6
					},
					"indices":7,
					"material":1
				}
			]
		},
		{
			"name":"Circle.001_Roof_0",
			"primitives":[
				{
					"attributes":{
						"POSITION":8,
						"NORMAL":9,
						"TEXCOORD_0":10
					},
					"indices":11,
					"material":2
				}
			]
		},
		{
			"name":"Circle.001_Window_0",
			"primitives":[
				{
					"attributes":{
						"POSITION":12,
						"NORMAL":13,
						"TEXCOORD_0":14
					},
					"indices":15,
					"material":3
				}
			]
		}
	],
	"textures":[
		{
			"sampler":0,
			"source":0
		},
		{
			"sampler":0,
			"source":1
		},
		{
			"sampler":0,
			"source":2
		},
		{
			"sampler":0,
			"source":3
		}
	],
	"images":[
		{
			"mimeType":"image/jpeg",
			"name":"House_normal",
			"uri":"House_normal.jpg"
		},
		{
			"mimeType":"image/jpeg",
			"name":"House_baseColor",
			"uri":"House_baseColor.jpg"
		},
		{
			"mimeType":"image/jpeg",
			"name":"Roof_baseColor",
			"uri":"Roof_baseColor.jpg"
		},
		{
			"mimeType":"image/jpeg",
			"name":"Window_baseColor",
			"uri":"Window_baseColor.jpg"
		}
	],
	"accessors":[
		{
			"bufferView":0,
			"componentType":5126,
			"count":208,
			"max":[
				-4.532013416290283,
				3.784623384475708,
				-3.757591485977173
			],
			"min":[
				-4.663158416748047,
				-3.7589900493621826,
				-7.156362056732178
			],
			"type":"VEC3"
		},
		{
			"bufferView":1,
			"componentType":5126,
			"count":208,
			"type":"VEC3"
		},
		{
			"bufferView":2,
			"componentType":5126,
			"count":208,
			"type":"VEC2"
		},
		{
			"bufferView":3,
			"componentType":5123,
			"count":336,
			"type":"SCALAR"
		},
		{
			"bufferView":4,
			"componentType":5126,
			"count":5069,
			"max":[
				5.639179706573486,
				9.82764720916748,
				0.27794456481933594
			],
			"min":[
				-4.532013416290283,
				-9.827648162841797,
				-10.923151016235352
			],
			"type":"VEC3"
		},
		{
			"bufferView":5,
			"componentType":5126,
			"count":5069,
			"type":"VEC3"
		},
		{
			"bufferView":6,
			"componentType":5126,
			"count":5069,
			"type":"VEC2"
		},
		{
			"bufferView":7,
			"componentType":5123,
			"count":12516,
			"type":"SCALAR"
		},
		{
			"bufferView":8,
			"componentType":5126,
			"count":654,
			"max":[
				0.08053077757358551,
				10.016986846923828,
				-0.00858306884765625
			],
			"min":[
				-3.3999366760253906,
				-10.065264701843262,
				-10.64109992980957
			],
			"type":"VEC3"
		},
		{
			"bufferView":9,
			"componentType":5126,
			"count":654,
			"type":"VEC3"
		},
		{
			"bufferView":10,
			"componentType":5126,
			"count":654,
			"type":"VEC2"
		},
		{
			"bufferView":11,
			"componentType":5123,
			"count":1122,
			"type":"SCALAR"
		},
		{
			"bufferView":12,
			"componentType":5126,
			"count":455,
			"max":[
				5.581713676452637,
				9.348130226135254,
				0.1258266717195511
			],
			"min":[
				-1.9976693391799927,
				-9.348130226135254,
				-10.77103328704834
			],
			"type":"VEC3"
		},
		{
			"bufferView":13,
			"componentType":5126,
			"count":455,
			"type":"VEC3"
		},
		{
			"bufferView":14,
			"componentType":5126,
			"count":455,
			"type":"VEC2"
		},
		{
			"bufferView":15,
			"componentType":5123,
			"count":1011,
			"type":"SCALAR"
		}
	],
	"bufferViews":[
		{
			"buffer":0,
			"byteLength":2496,
			"byteOffset":0,
			"target":34962
		},
		{
			"buffer":0,
			"byteLength":2496,
			"byteOffset":2496,
			"target":34962
		},
		{
			"buffer":0,
			"byteLength":1664,
			"byteOffset":4992,
			"target":34962
		},
		{
			"buffer":0,
			"byteLength":672,
			"byteOffset":6656,
			"target":34963
		},
		{
			"buffer":0,
			"byteLength":60828,
			"byteOffset":7328,
			"target":34962
		},
		{
			"buffer":0,
			"byteLength":60828,
			"byteOffset":68156,
			"target":34962
		},
		{
			"buffer":0,
			"byteLength":40552,
			"byteOffset":128984,
			"target":34962
		},
		{
			"buffer":0,
			"byteLength":25032,
			"byteOffset":169536,
			"target":34963
		},
		{
			"buffer":0,
			"byteLength":7848,
			"byteOffset":194568,
			"target":34962
		},
		{
			"buffer":0,
			"byteLength":7848,
			"byteOffset":202416,
			"target":34962
		},
		{
			"buffer":0,
			"byteLength":5232,
			"byteOffset":210264,
			"target":34962
		},
		{
			"buffer":0,
			"byteLength":2244,
			"byteOffset":215496,
			"target":34963
		},
		{
			"buffer":0,
			"byteLength":5460,
			"byteOffset":217740,
			"target":34962
		},
		{
			"buffer":0,
			"byteLength":5460,
			"byteOffset":223200,
			"target":34962
		},
		{
			"buffer":0,
			"byteLength":3640,
			"byteOffset":228660,
			"target":34962
		},
		{
			"buffer":0,
			"byteLength":2022,
			"byteOffset":232300,
			"target":34963
		}
	],
	"samplers":[
		{
			"magFilter":9729,
			"minFilter":9987
		}
	],
	"buffers":[
		{
			"byteLength":234324,
			"uri":"scene.bin"
		}
	]
}
