{
	"asset":{
		"generator":"Khronos glTF Blender I/O v4.1.63",
		"version":"2.0"
	},
	"scene":0,
	"scenes":[
		{
			"name":"Scene",
			"nodes":[
				0,
				1,
				2,
				3,
				4,
				5
			]
		}
	],
	"nodes":[
		{
			"mesh":0,
			"name":"Object_4",
			"scale":[
				1.1630756855010986,
				1.1630759239196777,
				1.1630759239196777
			],
			"translation":[
				10.953872680664062,
				0,
				3.1968772411346436
			]
		},
		{
			"mesh":1,
			"name":"Object_5",
			"scale":[
				1.1630756855010986,
				1.1630759239196777,
				1.1630759239196777
			],
			"translation":[
				10.953872680664062,
				0,
				3.1968772411346436
			]
		},
		{
			"mesh":2,
			"name":"Object_6",
			"scale":[
				1.1630756855010986,
				1.1630759239196777,
				1.1630759239196777
			],
			"translation":[
				10.953872680664062,
				0,
				3.1968772411346436
			]
		},
		{
			"mesh":3,
			"name":"Object_7",
			"scale":[
				1.1630756855010986,
				1.1630759239196777,
				1.1630759239196777
			],
			"translation":[
				10.953872680664062,
				0,
				3.1968772411346436
			]
		},
		{
			"mesh":4,
			"name":"Object_8",
			"scale":[
				1.1630756855010986,
				1.1630759239196777,
				1.1630759239196777
			],
			"translation":[
				10.953872680664062,
				0,
				3.1968772411346436
			]
		},
		{
			"mesh":5,
			"name":"Object_9",
			"scale":[
				1.1630756855010986,
				1.1630759239196777,
				1.1630759239196777
			],
			"translation":[
				10.953872680664062,
				0,
				3.1968772411346436
			]
		}
	],
	"materials":[
		{
			"doubleSided":true,
			"name":"trunk-01-1",
			"pbrMetallicRoughness":{
				"baseColorTexture":{
					"index":0
				},
				"metallicFactor":0,
				"roughnessFactor":0.3431819975376129
			}
		},
		{
			"alphaMode":"BLEND",
			"doubleSided":true,
			"name":"branch-02-1",
			"pbrMetallicRoughness":{
				"baseColorTexture":{
					"index":1
				},
				"metallicFactor":0,
				"roughnessFactor":0.5
			}
		},
		{
			"alphaMode":"BLEND",
			"doubleSided":true,
			"name":"branch-01-1",
			"pbrMetallicRoughness":{
				"baseColorTexture":{
					"index":2
				},
				"metallicFactor":0,
				"roughnessFactor":0.5
			}
		},
		{
			"alphaMode":"BLEND",
			"doubleSided":true,
			"name":"branch-04-1",
			"pbrMetallicRoughness":{
				"baseColorTexture":{
					"index":3
				},
				"metallicFactor":0,
				"roughnessFactor":0.5
			}
		},
		{
			"alphaMode":"BLEND",
			"doubleSided":true,
			"name":"branch-05-1",
			"pbrMetallicRoughness":{
				"baseColorTexture":{
					"index":4
				},
				"metallicFactor":0,
				"roughnessFactor":0.5
			}
		},
		{
			"alphaMode":"BLEND",
			"doubleSided":true,
			"name":"branch-03-1",
			"pbrMetallicRoughness":{
				"baseColorTexture":{
					"index":5
				},
				"metallicFactor":0,
				"roughnessFactor":0.5
			}
		}
	],
	"meshes":[
		{
			"name":"Object_0",
			"primitives":[
				{
					"attributes":{
						"POSITION":0,
						"NORMAL":1,
						"TEXCOORD_0":2
					},
					"indices":3,
					"material":0
				}
			]
		},
		{
			"name":"Object_1",
			"primitives":[
				{
					"attributes":{
						"POSITION":4,
						"NORMAL":5,
						"TEXCOORD_0":6
					},
					"indices":7,
					"material":1
				}
			]
		},
		{
			"name":"Object_2",
			"primitives":[
				{
					"attributes":{
						"POSITION":8,
						"NORMAL":9,
						"TEXCOORD_0":10
					},
					"indices":11,
					"material":2
				}
			]
		},
		{
			"name":"Object_3",
			"primitives":[
				{
					"attributes":{
						"POSITION":12,
						"NORMAL":13,
						"TEXCOORD_0":14
					},
					"indices":15,
					"material":3
				}
			]
		},
		{
			"name":"Object_4",
			"primitives":[
				{
					"attributes":{
						"POSITION":16,
						"NORMAL":17,
						"TEXCOORD_0":18
					},
					"indices":19,
					"material":4
				}
			]
		},
		{
			"name":"Object_5",
			"primitives":[
				{
					"attributes":{
						"POSITION":20,
						"NORMAL":21,
						"TEXCOORD_0":22
					},
					"indices":23,
					"material":5
				}
			]
		}
	],
	"textures":[
		{
			"sampler":0,
			"source":0
		},
		{
			"sampler":0,
			"source":1
		},
		{
			"sampler":0,
			"source":2
		},
		{
			"sampler":0,
			"source":3
		},
		{
			"sampler":0,
			"source":4
		},
		{
			"sampler":0,
			"source":5
		}
	],
	"images":[
		{
			"mimeType":"image/jpeg",
			"name":"trunk-01-1_baseColor",
			"uri":"trunk-01-1_baseColor.jpg"
		},
		{
			"mimeType":"image/png",
			"name":"branch-02-1_baseColor",
			"uri":"branch-02-1_baseColor.png"
		},
		{
			"mimeType":"image/png",
			"name":"branch-01-1_baseColor",
			"uri":"branch-01-1_baseColor.png"
		},
		{
			"mimeType":"image/png",
			"name":"branch-04-1_baseColor",
			"uri":"branch-04-1_baseColor.png"
		},
		{
			"mimeType":"image/png",
			"name":"branch-05-1_baseColor",
			"uri":"branch-05-1_baseColor.png"
		},
		{
			"mimeType":"image/png",
			"name":"branch-03-1_baseColor",
			"uri":"branch-03-1_baseColor.png"
		}
	],
	"accessors":[
		{
			"bufferView":0,
			"componentType":5126,
			"count":294,
			"max":[
				0.4472169876098633,
				6.621478080749512,
				1.2091147899627686
			],
			"min":[
				-0.8112773895263672,
				0,
				-0.6347320079803467
			],
			"type":"VEC3"
		},
		{
			"bufferView":1,
			"componentType":5126,
			"count":294,
			"type":"VEC3"
		},
		{
			"bufferView":2,
			"componentType":5126,
			"count":294,
			"type":"VEC2"
		},
		{
			"bufferView":3,
			"componentType":5123,
			"count":666,
			"type":"SCALAR"
		},
		{
			"bufferView":4,
			"componentType":5126,
			"count":126,
			"max":[
				1.8975582122802734,
				7.304459571838379,
				2.3266398906707764
			],
			"min":[
				-2.762608051300049,
				0.7973039150238037,
				-2.403548240661621
			],
			"type":"VEC3"
		},
		{
			"bufferView":5,
			"componentType":5126,
			"count":126,
			"type":"VEC3"
		},
		{
			"bufferView":6,
			"componentType":5126,
			"count":126,
			"type":"VEC2"
		},
		{
			"bufferView":7,
			"componentType":5123,
			"count":336,
			"type":"SCALAR"
		},
		{
			"bufferView":8,
			"componentType":5126,
			"count":135,
			"max":[
				2.1549148559570312,
				7.216530799865723,
				2.6262686252593994
			],
			"min":[
				-2.904202461242676,
				1.5305750370025635,
				-3.057264804840088
			],
			"type":"VEC3"
		},
		{
			"bufferView":9,
			"componentType":5126,
			"count":135,
			"type":"VEC3"
		},
		{
			"bufferView":10,
			"componentType":5126,
			"count":135,
			"type":"VEC2"
		},
		{
			"bufferView":11,
			"componentType":5123,
			"count":360,
			"type":"SCALAR"
		},
		{
			"bufferView":12,
			"componentType":5126,
			"count":120,
			"max":[
				2.1281089782714844,
				7.389200210571289,
				1.768580675125122
			],
			"min":[
				-1.0233840942382812,
				2.5811307430267334,
				-1.1569725275039673
			],
			"type":"VEC3"
		},
		{
			"bufferView":13,
			"componentType":5126,
			"count":120,
			"type":"VEC3"
		},
		{
			"bufferView":14,
			"componentType":5126,
			"count":120,
			"type":"VEC2"
		},
		{
			"bufferView":15,
			"componentType":5123,
			"count":240,
			"type":"SCALAR"
		},
		{
			"bufferView":16,
			"componentType":5126,
			"count":80,
			"max":[
				1.6728792190551758,
				7.271019458770752,
				3.109834909439087
			],
			"min":[
				-2.02835750579834,
				1.4613173007965088,
				-0.7622158527374268
			],
			"type":"VEC3"
		},
		{
			"bufferView":17,
			"componentType":5126,
			"count":80,
			"type":"VEC3"
		},
		{
			"bufferView":18,
			"componentType":5126,
			"count":80,
			"type":"VEC2"
		},
		{
			"bufferView":19,
			"componentType":5123,
			"count":192,
			"type":"SCALAR"
		},
		{
			"bufferView":20,
			"componentType":5126,
			"count":54,
			"max":[
				1.6430854797363281,
				7.003584384918213,
				1.789717435836792
			],
			"min":[
				-2.1049413681030273,
				0.8191726207733154,
				-2.1914432048797607
			],
			"type":"VEC3"
		},
		{
			"bufferView":21,
			"componentType":5126,
			"count":54,
			"type":"VEC3"
		},
		{
			"bufferView":22,
			"componentType":5126,
			"count":54,
			"type":"VEC2"
		},
		{
			"bufferView":23,
			"componentType":5123,
			"count":144,
			"type":"SCALAR"
		}
	],
	"bufferViews":[
		{
			"buffer":0,
			"byteLength":3528,
			"byteOffset":0,
			"target":34962
		},
		{
			"buffer":0,
			"byteLength":3528,
			"byteOffset":3528,
			"target":34962
		},
		{
			"buffer":0,
			"byteLength":2352,
			"byteOffset":7056,
			"target":34962
		},
		{
			"buffer":0,
			"byteLength":1332,
			"byteOffset":9408,
			"target":34963
		},
		{
			"buffer":0,
			"byteLength":1512,
			"byteOffset":10740,
			"target":34962
		},
		{
			"buffer":0,
			"byteLength":1512,
			"byteOffset":12252,
			"target":34962
		},
		{
			"buffer":0,
			"byteLength":1008,
			"byteOffset":13764,
			"target":34962
		},
		{
			"buffer":0,
			"byteLength":672,
			"byteOffset":14772,
			"target":34963
		},
		{
			"buffer":0,
			"byteLength":1620,
			"byteOffset":15444,
			"target":34962
		},
		{
			"buffer":0,
			"byteLength":1620,
			"byteOffset":17064,
			"target":34962
		},
		{
			"buffer":0,
			"byteLength":1080,
			"byteOffset":18684,
			"target":34962
		},
		{
			"buffer":0,
			"byteLength":720,
			"byteOffset":19764,
			"target":34963
		},
		{
			"buffer":0,
			"byteLength":1440,
			"byteOffset":20484,
			"target":34962
		},
		{
			"buffer":0,
			"byteLength":1440,
			"byteOffset":21924,
			"target":34962
		},
		{
			"buffer":0,
			"byteLength":960,
			"byteOffset":23364,
			"target":34962
		},
		{
			"buffer":0,
			"byteLength":480,
			"byteOffset":24324,
			"target":34963
		},
		{
			"buffer":0,
			"byteLength":960,
			"byteOffset":24804,
			"target":34962
		},
		{
			"buffer":0,
			"byteLength":960,
			"byteOffset":25764,
			"target":34962
		},
		{
			"buffer":0,
			"byteLength":640,
			"byteOffset":26724,
			"target":34962
		},
		{
			"buffer":0,
			"byteLength":384,
			"byteOffset":27364,
			"target":34963
		},
		{
			"buffer":0,
			"byteLength":648,
			"byteOffset":27748,
			"target":34962
		},
		{
			"buffer":0,
			"byteLength":648,
			"byteOffset":28396,
			"target":34962
		},
		{
			"buffer":0,
			"byteLength":432,
			"byteOffset":29044,
			"target":34962
		},
		{
			"buffer":0,
			"byteLength":288,
			"byteOffset":29476,
			"target":34963
		}
	],
	"samplers":[
		{
			"magFilter":9729,
			"minFilter":9987
		}
	],
	"buffers":[
		{
			"byteLength":29764,
			"uri":"tree1.bin"
		}
	]
}
