{
	"asset":{
		"generator":"Khronos glTF Blender I/O v4.1.63",
		"version":"2.0"
	},
	"scene":0,
	"scenes":[
		{
			"name":"Scene",
			"nodes":[
				0
			]
		}
	],
	"nodes":[
		{
			"mesh":0,
			"name":"left.008",
			"rotation":[
				0,
				0.21658478677272797,
				0,
				0.9762638211250305
			],
			"scale":[
				-0.9137017726898193,
				-0.8813281655311584,
				-0.9225143194198608
			]
		}
	],
	"materials":[
		{
			"doubleSided":true,
			"name":"seaside_rock.001",
			"normalTexture":{
				"index":0
			},
			"pbrMetallicRoughness":{
				"baseColorTexture":{
					"index":1
				},
				"metallicFactor":0,
				"metallicRoughnessTexture":{
					"index":2
				}
			}
		},
		{
			"doubleSided":true,
			"name":"Stucco red.001",
			"normalTexture":{
				"index":3
			},
			"pbrMetallicRoughness":{
				"baseColorTexture":{
					"index":4
				},
				"metallicFactor":0,
				"metallicRoughnessTexture":{
					"index":5
				}
			}
		},
		{
			"doubleSided":true,
			"name":"Stucco red",
			"normalTexture":{
				"index":6,
				"texCoord":2
			},
			"pbrMetallicRoughness":{
				"baseColorTexture":{
					"index":7,
					"texCoord":2
				},
				"metallicFactor":0,
				"metallicRoughnessTexture":{
					"index":8,
					"texCoord":2
				}
			}
		},
		{
			"doubleSided":true,
			"name":"seaside_rock",
			"normalTexture":{
				"index":9
			},
			"pbrMetallicRoughness":{
				"baseColorTexture":{
					"index":10
				},
				"metallicFactor":0,
				"metallicRoughnessTexture":{
					"index":11
				}
			}
		}
	],
	"meshes":[
		{
			"name":"Object_14.028",
			"primitives":[
				{
					"attributes":{
						"POSITION":0,
						"NORMAL":1,
						"TEXCOORD_0":2,
						"TEXCOORD_1":3,
						"TEXCOORD_2":4
					},
					"indices":5,
					"material":0
				},
				{
					"attributes":{
						"POSITION":6,
						"NORMAL":7,
						"TEXCOORD_0":8,
						"TEXCOORD_1":9,
						"TEXCOORD_2":10
					},
					"indices":11,
					"material":1
				},
				{
					"attributes":{
						"POSITION":12,
						"NORMAL":13,
						"TEXCOORD_0":14,
						"TEXCOORD_1":15,
						"TEXCOORD_2":16
					},
					"indices":17,
					"material":2
				},
				{
					"attributes":{
						"POSITION":18,
						"NORMAL":19,
						"TEXCOORD_0":20,
						"TEXCOORD_1":21,
						"TEXCOORD_2":22
					},
					"indices":23,
					"material":3
				}
			]
		}
	],
	"textures":[
		{
			"sampler":0,
			"source":0
		},
		{
			"sampler":0,
			"source":1
		},
		{
			"sampler":0,
			"source":2
		},
		{
			"sampler":0,
			"source":3
		},
		{
			"sampler":0,
			"source":4
		},
		{
			"sampler":0,
			"source":5
		},
		{
			"sampler":0,
			"source":3
		},
		{
			"sampler":0,
			"source":4
		},
		{
			"sampler":0,
			"source":5
		},
		{
			"sampler":0,
			"source":0
		},
		{
			"sampler":0,
			"source":1
		},
		{
			"sampler":0,
			"source":2
		}
	],
	"images":[
		{
			"mimeType":"image/jpeg",
			"name":"seaside_rock_nor_gl",
			"uri":"seaside_rock_nor_gl.jpg"
		},
		{
			"mimeType":"image/jpeg",
			"name":"seaside_rock_diff_1k",
			"uri":"seaside_rock_diff_1k.jpg"
		},
		{
			"mimeType":"image/jpeg",
			"name":"seaside_rock_rough",
			"uri":"seaside_rock_rough.jpg"
		},
		{
			"mimeType":"image/jpeg",
			"name":"Stucco normal",
			"uri":"Stucco%20normal.jpg"
		},
		{
			"mimeType":"image/jpeg",
			"name":"stucco diffuse",
			"uri":"stucco%20diffuse.jpg"
		},
		{
			"mimeType":"image/jpeg",
			"name":"Stucco roughness",
			"uri":"Stucco%20roughness.jpg"
		}
	],
	"accessors":[
		{
			"bufferView":0,
			"componentType":5126,
			"count":60565,
			"max":[
				15.36103343963623,
				2.2733914852142334,
				17.575443267822266
			],
			"min":[
				-293.6844787597656,
				-2.2700271606445312,
				-161.7414093017578
			],
			"type":"VEC3"
		},
		{
			"bufferView":1,
			"componentType":5126,
			"count":60565,
			"type":"VEC3"
		},
		{
			"bufferView":2,
			"componentType":5126,
			"count":60565,
			"type":"VEC2"
		},
		{
			"bufferView":3,
			"componentType":5126,
			"count":60565,
			"type":"VEC2"
		},
		{
			"bufferView":4,
			"componentType":5126,
			"count":60565,
			"type":"VEC2"
		},
		{
			"bufferView":5,
			"componentType":5123,
			"count":75792,
			"type":"SCALAR"
		},
		{
			"bufferView":6,
			"componentType":5126,
			"count":448,
			"max":[
				15.383842468261719,
				0.37792450189590454,
				14.845913887023926
			],
			"min":[
				-293.97198486328125,
				-0.4709104299545288,
				-158.30999755859375
			],
			"type":"VEC3"
		},
		{
			"bufferView":7,
			"componentType":5126,
			"count":448,
			"type":"VEC3"
		},
		{
			"bufferView":8,
			"componentType":5126,
			"count":448,
			"type":"VEC2"
		},
		{
			"bufferView":9,
			"componentType":5126,
			"count":448,
			"type":"VEC2"
		},
		{
			"bufferView":10,
			"componentType":5126,
			"count":448,
			"type":"VEC2"
		},
		{
			"bufferView":11,
			"componentType":5123,
			"count":1152,
			"type":"SCALAR"
		},
		{
			"bufferView":12,
			"componentType":5126,
			"count":305,
			"max":[
				56.20472717285156,
				-0.20858842134475708,
				34.45307922363281
			],
			"min":[
				-341.9299011230469,
				-0.3625851273536682,
				-184.32005310058594
			],
			"type":"VEC3"
		},
		{
			"bufferView":13,
			"componentType":5126,
			"count":305,
			"type":"VEC3"
		},
		{
			"bufferView":14,
			"componentType":5126,
			"count":305,
			"type":"VEC2"
		},
		{
			"bufferView":15,
			"componentType":5126,
			"count":305,
			"type":"VEC2"
		},
		{
			"bufferView":16,
			"componentType":5126,
			"count":305,
			"type":"VEC2"
		},
		{
			"bufferView":17,
			"componentType":5123,
			"count":405,
			"type":"SCALAR"
		},
		{
			"bufferView":18,
			"componentType":5126,
			"count":31760,
			"max":[
				56.7965087890625,
				2.0625720024108887,
				35.749210357666016
			],
			"min":[
				-341.86700439453125,
				-2.0862319469451904,
				-186.37460327148438
			],
			"type":"VEC3"
		},
		{
			"bufferView":19,
			"componentType":5126,
			"count":31760,
			"type":"VEC3"
		},
		{
			"bufferView":20,
			"componentType":5126,
			"count":31760,
			"type":"VEC2"
		},
		{
			"bufferView":21,
			"componentType":5126,
			"count":31760,
			"type":"VEC2"
		},
		{
			"bufferView":22,
			"componentType":5126,
			"count":31760,
			"type":"VEC2"
		},
		{
			"bufferView":23,
			"componentType":5123,
			"count":39570,
			"type":"SCALAR"
		}
	],
	"bufferViews":[
		{
			"buffer":0,
			"byteLength":726780,
			"byteOffset":0,
			"target":34962
		},
		{
			"buffer":0,
			"byteLength":726780,
			"byteOffset":726780,
			"target":34962
		},
		{
			"buffer":0,
			"byteLength":484520,
			"byteOffset":1453560,
			"target":34962
		},
		{
			"buffer":0,
			"byteLength":484520,
			"byteOffset":1938080,
			"target":34962
		},
		{
			"buffer":0,
			"byteLength":484520,
			"byteOffset":2422600,
			"target":34962
		},
		{
			"buffer":0,
			"byteLength":151584,
			"byteOffset":2907120,
			"target":34963
		},
		{
			"buffer":0,
			"byteLength":5376,
			"byteOffset":3058704,
			"target":34962
		},
		{
			"buffer":0,
			"byteLength":5376,
			"byteOffset":3064080,
			"target":34962
		},
		{
			"buffer":0,
			"byteLength":3584,
			"byteOffset":3069456,
			"target":34962
		},
		{
			"buffer":0,
			"byteLength":3584,
			"byteOffset":3073040,
			"target":34962
		},
		{
			"buffer":0,
			"byteLength":3584,
			"byteOffset":3076624,
			"target":34962
		},
		{
			"buffer":0,
			"byteLength":2304,
			"byteOffset":3080208,
			"target":34963
		},
		{
			"buffer":0,
			"byteLength":3660,
			"byteOffset":3082512,
			"target":34962
		},
		{
			"buffer":0,
			"byteLength":3660,
			"byteOffset":3086172,
			"target":34962
		},
		{
			"buffer":0,
			"byteLength":2440,
			"byteOffset":3089832,
			"target":34962
		},
		{
			"buffer":0,
			"byteLength":2440,
			"byteOffset":3092272,
			"target":34962
		},
		{
			"buffer":0,
			"byteLength":2440,
			"byteOffset":3094712,
			"target":34962
		},
		{
			"buffer":0,
			"byteLength":810,
			"byteOffset":3097152,
			"target":34963
		},
		{
			"buffer":0,
			"byteLength":381120,
			"byteOffset":3097964,
			"target":34962
		},
		{
			"buffer":0,
			"byteLength":381120,
			"byteOffset":3479084,
			"target":34962
		},
		{
			"buffer":0,
			"byteLength":254080,
			"byteOffset":3860204,
			"target":34962
		},
		{
			"buffer":0,
			"byteLength":254080,
			"byteOffset":4114284,
			"target":34962
		},
		{
			"buffer":0,
			"byteLength":254080,
			"byteOffset":4368364,
			"target":34962
		},
		{
			"buffer":0,
			"byteLength":79140,
			"byteOffset":4622444,
			"target":34963
		}
	],
	"samplers":[
		{
			"magFilter":9729,
			"minFilter":9987
		}
	],
	"buffers":[
		{
			"byteLength":4701584,
			"uri":"river.bin"
		}
	]
}
