{
	"asset":{
		"generator":"Khronos glTF Blender I/O v4.1.63",
		"version":"2.0"
	},
	"scene":0,
	"scenes":[
		{
			"name":"Scene",
			"nodes":[
				0,
				1
			]
		}
	],
	"nodes":[
		{
			"mesh":0,
			"name":"Object_58.013",
			"rotation":[
				0.5913835763931274,
				-0.3546764552593231,
				0.4299136996269226,
				0.5827902555465698
			],
			"scale":[
				-0.8636775016784668,
				-0.4940843880176544,
				-0.8692697882652283
			],
			"translation":[
				-131.49334716796875,
				0,
				73.89945983886719
			]
		},
		{
			"mesh":1,
			"name":"Object_58.016",
			"rotation":[
				0.4747675955295563,
				0.5533242225646973,
				-0.5560181140899658,
				0.3990890383720398
			],
			"scale":[
				-0.8636776804924011,
				-0.4940843880176544,
				-0.8692699074745178
			],
			"translation":[
				-134.01803588867188,
				0,
				-91.77778625488281
			]
		}
	],
	"materials":[
		{
			"doubleSided":true,
			"name":"Stucco red.001",
			"normalTexture":{
				"index":0
			},
			"pbrMetallicRoughness":{
				"baseColorTexture":{
					"index":1
				},
				"metallicFactor":0,
				"metallicRoughnessTexture":{
					"index":2
				}
			}
		},
		{
			"doubleSided":true,
			"name":"seaside_rock.001",
			"normalTexture":{
				"index":3
			},
			"pbrMetallicRoughness":{
				"baseColorTexture":{
					"index":4
				},
				"metallicFactor":0,
				"metallicRoughnessTexture":{
					"index":5
				}
			}
		}
	],
	"meshes":[
		{
			"name":"Object_27.021",
			"primitives":[
				{
					"attributes":{
						"POSITION":0,
						"NORMAL":1,
						"TEXCOORD_0":2
					},
					"indices":3,
					"material":0
				}
			]
		},
		{
			"name":"Object_27.024",
			"primitives":[
				{
					"attributes":{
						"POSITION":4,
						"NORMAL":5,
						"TEXCOORD_0":6
					},
					"indices":7,
					"material":1
				}
			]
		}
	],
	"textures":[
		{
			"sampler":0,
			"source":0
		},
		{
			"sampler":0,
			"source":1
		},
		{
			"sampler":0,
			"source":2
		},
		{
			"sampler":0,
			"source":3
		},
		{
			"sampler":0,
			"source":4
		},
		{
			"sampler":0,
			"source":5
		}
	],
	"images":[
		{
			"mimeType":"image/jpeg",
			"name":"Stucco normal",
			"uri":"Stucco%20normal.jpg"
		},
		{
			"mimeType":"image/jpeg",
			"name":"stucco diffuse",
			"uri":"stucco%20diffuse.jpg"
		},
		{
			"mimeType":"image/jpeg",
			"name":"Stucco roughness",
			"uri":"Stucco%20roughness.jpg"
		},
		{
			"mimeType":"image/jpeg",
			"name":"seaside_rock_nor_gl",
			"uri":"seaside_rock_nor_gl.jpg"
		},
		{
			"mimeType":"image/jpeg",
			"name":"seaside_rock_diff_1k",
			"uri":"seaside_rock_diff_1k.jpg"
		},
		{
			"mimeType":"image/jpeg",
			"name":"seaside_rock_rough",
			"uri":"seaside_rock_rough.jpg"
		}
	],
	"accessors":[
		{
			"bufferView":0,
			"componentType":5126,
			"count":153,
			"max":[
				193.9017333984375,
				151.53945922851562,
				10.61462116241455
			],
			"min":[
				-17.6516056060791,
				-23.136436462402344,
				-0.6718935966491699
			],
			"type":"VEC3"
		},
		{
			"bufferView":1,
			"componentType":5126,
			"count":153,
			"type":"VEC3"
		},
		{
			"bufferView":2,
			"componentType":5126,
			"count":153,
			"type":"VEC2"
		},
		{
			"bufferView":3,
			"componentType":5123,
			"count":162,
			"type":"SCALAR"
		},
		{
			"bufferView":4,
			"componentType":5126,
			"count":113879,
			"max":[
				205.86477661132812,
				96.98629760742188,
				14.510811805725098
			],
			"min":[
				-17.483888626098633,
				-26.70526885986328,
				-1.6834726333618164
			],
			"type":"VEC3"
		},
		{
			"bufferView":5,
			"componentType":5126,
			"count":113879,
			"type":"VEC3"
		},
		{
			"bufferView":6,
			"componentType":5126,
			"count":113879,
			"type":"VEC2"
		},
		{
			"bufferView":7,
			"componentType":5125,
			"count":142110,
			"type":"SCALAR"
		}
	],
	"bufferViews":[
		{
			"buffer":0,
			"byteLength":1836,
			"byteOffset":0,
			"target":34962
		},
		{
			"buffer":0,
			"byteLength":1836,
			"byteOffset":1836,
			"target":34962
		},
		{
			"buffer":0,
			"byteLength":1224,
			"byteOffset":3672,
			"target":34962
		},
		{
			"buffer":0,
			"byteLength":324,
			"byteOffset":4896,
			"target":34963
		},
		{
			"buffer":0,
			"byteLength":1366548,
			"byteOffset":5220,
			"target":34962
		},
		{
			"buffer":0,
			"byteLength":1366548,
			"byteOffset":1371768,
			"target":34962
		},
		{
			"buffer":0,
			"byteLength":911032,
			"byteOffset":2738316,
			"target":34962
		},
		{
			"buffer":0,
			"byteLength":568440,
			"byteOffset":3649348,
			"target":34963
		}
	],
	"samplers":[
		{
			"magFilter":9729,
			"minFilter":9987
		}
	],
	"buffers":[
		{
			"byteLength":4217788,
			"uri":"river1.bin"
		}
	]
}
