{
	"asset":{
		"generator":"Khronos glTF Blender I/O v4.1.63",
		"version":"2.0"
	},
	"extensionsUsed":[
		"KHR_materials_specular"
	],
	"scene":0,
	"scenes":[
		{
			"name":"Scene",
			"nodes":[
				12
			]
		}
	],
	"nodes":[
		{
			"mesh":0,
			"name":"Object_56"
		},
		{
			"children":[
				0
			],
			"name":"Atlas.001_27",
			"rotation":[
				0.5,
				0.5,
				-0.5,
				0.5
			],
			"translation":[
				-0.1214221715927124,
				0.008800163865089417,
				-0.7914540767669678
			]
		},
		{
			"mesh":1,
			"name":"Object_54"
		},
		{
			"children":[
				2
			],
			"name":"Atlas.002_26",
			"rotation":[
				0.5,
				0.5,
				-0.5,
				0.5
			],
			"translation":[
				-0.1214221715927124,
				0.008800163865089417,
				-0.7914540767669678
			]
		},
		{
			"mesh":2,
			"name":"Object_6"
		},
		{
			"children":[
				4
			],
			"name":"Plane.001_2",
			"scale":[
				0.27927350997924805,
				0.27927350997924805,
				0.27927350997924805
			],
			"translation":[
				0.019887924194335938,
				0.019907832145690918,
				-0.4931136965751648
			]
		},
		{
			"mesh":3,
			"name":"Object_4"
		},
		{
			"children":[
				6
			],
			"name":"Plane.002_1",
			"scale":[
				0.27927350997924805,
				0.27927350997924805,
				0.27927350997924805
			],
			"translation":[
				0.019887924194335938,
				-0.20300154387950897,
				-0.4931136965751648
			]
		},
		{
			"mesh":4,
			"name":"Object_8"
		},
		{
			"children":[
				8
			],
			"name":"Plane_3",
			"scale":[
				0.27927350997924805,
				0.27927350997924805,
				0.27927350997924805
			],
			"translation":[
				0.019887924194335938,
				0.019907832145690918,
				-0.4931136965751648
			]
		},
		{
			"children":[
				1,
				3,
				5,
				7,
				9
			],
			"name":"GLTF_SceneRootNode",
			"rotation":[
				0.70710688829422,
				0,
				0,
				0.7071066498756409
			]
		},
		{
			"children":[
				10
			],
			"name":"root"
		},
		{
			"children":[
				11
			],
			"name":"Sketchfab_model",
			"rotation":[
				-0.70710688829422,
				0,
				0,
				0.7071066498756409
			]
		}
	],
	"materials":[
		{
			"doubleSided":true,
			"extensions":{
				"KHR_materials_specular":{
					"specularTexture":{
						"index":0
					}
				}
			},
			"name":"Atlas",
			"pbrMetallicRoughness":{
				"baseColorTexture":{
					"index":1
				},
				"metallicRoughnessTexture":{
					"index":2
				}
			}
		}
	],
	"meshes":[
		{
			"name":"Object_26",
			"primitives":[
				{
					"attributes":{
						"POSITION":0,
						"NORMAL":1,
						"TEXCOORD_0":2
					},
					"indices":3,
					"material":0
				}
			]
		},
		{
			"name":"Object_25",
			"primitives":[
				{
					"attributes":{
						"POSITION":4,
						"NORMAL":5,
						"TEXCOORD_0":6
					},
					"indices":7,
					"material":0
				}
			]
		},
		{
			"name":"Object_1",
			"primitives":[
				{
					"attributes":{
						"POSITION":8,
						"NORMAL":9,
						"TEXCOORD_0":10
					},
					"indices":11,
					"material":0
				}
			]
		},
		{
			"name":"Object_0",
			"primitives":[
				{
					"attributes":{
						"POSITION":12,
						"NORMAL":13,
						"TEXCOORD_0":14
					},
					"indices":15,
					"material":0
				}
			]
		},
		{
			"name":"Object_2",
			"primitives":[
				{
					"attributes":{
						"POSITION":16,
						"NORMAL":17,
						"TEXCOORD_0":18
					},
					"indices":15,
					"material":0
				}
			]
		}
	],
	"textures":[
		{
			"sampler":0,
			"source":0
		},
		{
			"sampler":0,
			"source":1
		},
		{
			"sampler":0,
			"source":2
		}
	],
	"images":[
		{
			"mimeType":"image/png",
			"name":"Atlas_specularf0",
			"uri":"Atlas_specularf0.png"
		},
		{
			"mimeType":"image/png",
			"name":"Atlas_baseColor",
			"uri":"Atlas_baseColor.png"
		},
		{
			"mimeType":"image/png",
			"name":"Atlas_metallicRoughness",
			"uri":"Atlas_metallicRoughness.png"
		}
	],
	"accessors":[
		{
			"bufferView":0,
			"componentType":5126,
			"count":168,
			"max":[
				0.6374334692955017,
				0.27662190794944763,
				0.5093629956245422
			],
			"min":[
				0.22279173135757446,
				0.11752896755933762,
				0.4129983186721802
			],
			"type":"VEC3"
		},
		{
			"bufferView":1,
			"componentType":5126,
			"count":168,
			"type":"VEC3"
		},
		{
			"bufferView":2,
			"componentType":5126,
			"count":168,
			"type":"VEC2"
		},
		{
			"bufferView":3,
			"componentType":5123,
			"count":300,
			"type":"SCALAR"
		},
		{
			"bufferView":4,
			"componentType":5126,
			"count":4384,
			"max":[
				0.8910418748855591,
				0.18132567405700684,
				0.5078098177909851
			],
			"min":[
				-0.7100908160209656,
				-1.2479431629180908,
				-0.9086244106292725
			],
			"type":"VEC3"
		},
		{
			"bufferView":5,
			"componentType":5126,
			"count":4384,
			"type":"VEC3"
		},
		{
			"bufferView":6,
			"componentType":5126,
			"count":4384,
			"type":"VEC2"
		},
		{
			"bufferView":7,
			"componentType":5123,
			"count":7758,
			"type":"SCALAR"
		},
		{
			"bufferView":8,
			"componentType":5126,
			"count":288,
			"max":[
				0.3563520908355713,
				-0.00032699108123779297,
				0.23363876342773438
			],
			"min":[
				0.1730518937110901,
				-0.8369962573051453,
				-0.4827353060245514
			],
			"type":"VEC3"
		},
		{
			"bufferView":9,
			"componentType":5126,
			"count":288,
			"type":"VEC3"
		},
		{
			"bufferView":10,
			"componentType":5126,
			"count":288,
			"type":"VEC2"
		},
		{
			"bufferView":11,
			"componentType":5123,
			"count":432,
			"type":"SCALAR"
		},
		{
			"bufferView":12,
			"componentType":5126,
			"count":1224,
			"max":[
				0.3982640206813812,
				0.20263713598251343,
				0.6062890291213989
			],
			"min":[
				-0.11516596376895905,
				-0.032967764884233475,
				-0.7915655374526978
			],
			"type":"VEC3"
		},
		{
			"bufferView":13,
			"componentType":5126,
			"count":1224,
			"type":"VEC3"
		},
		{
			"bufferView":14,
			"componentType":5126,
			"count":1224,
			"type":"VEC2"
		},
		{
			"bufferView":15,
			"componentType":5123,
			"count":1860,
			"type":"SCALAR"
		},
		{
			"bufferView":16,
			"componentType":5126,
			"count":1224,
			"max":[
				0.3982640206813812,
				0.20263713598251343,
				0.6062890291213989
			],
			"min":[
				-0.11516596376895905,
				-0.032967764884233475,
				-0.7915655374526978
			],
			"type":"VEC3"
		},
		{
			"bufferView":17,
			"componentType":5126,
			"count":1224,
			"type":"VEC3"
		},
		{
			"bufferView":18,
			"componentType":5126,
			"count":1224,
			"type":"VEC2"
		}
	],
	"bufferViews":[
		{
			"buffer":0,
			"byteLength":2016,
			"byteOffset":0,
			"target":34962
		},
		{
			"buffer":0,
			"byteLength":2016,
			"byteOffset":2016,
			"target":34962
		},
		{
			"buffer":0,
			"byteLength":1344,
			"byteOffset":4032,
			"target":34962
		},
		{
			"buffer":0,
			"byteLength":600,
			"byteOffset":5376,
			"target":34963
		},
		{
			"buffer":0,
			"byteLength":52608,
			"byteOffset":5976,
			"target":34962
		},
		{
			"buffer":0,
			"byteLength":52608,
			"byteOffset":58584,
			"target":34962
		},
		{
			"buffer":0,
			"byteLength":35072,
			"byteOffset":111192,
			"target":34962
		},
		{
			"buffer":0,
			"byteLength":15516,
			"byteOffset":146264,
			"target":34963
		},
		{
			"buffer":0,
			"byteLength":3456,
			"byteOffset":161780,
			"target":34962
		},
		{
			"buffer":0,
			"byteLength":3456,
			"byteOffset":165236,
			"target":34962
		},
		{
			"buffer":0,
			"byteLength":2304,
			"byteOffset":168692,
			"target":34962
		},
		{
			"buffer":0,
			"byteLength":864,
			"byteOffset":170996,
			"target":34963
		},
		{
			"buffer":0,
			"byteLength":14688,
			"byteOffset":171860,
			"target":34962
		},
		{
			"buffer":0,
			"byteLength":14688,
			"byteOffset":186548,
			"target":34962
		},
		{
			"buffer":0,
			"byteLength":9792,
			"byteOffset":201236,
			"target":34962
		},
		{
			"buffer":0,
			"byteLength":3720,
			"byteOffset":211028,
			"target":34963
		},
		{
			"buffer":0,
			"byteLength":14688,
			"byteOffset":214748,
			"target":34962
		},
		{
			"buffer":0,
			"byteLength":14688,
			"byteOffset":229436,
			"target":34962
		},
		{
			"buffer":0,
			"byteLength":9792,
			"byteOffset":244124,
			"target":34962
		}
	],
	"samplers":[
		{
			"magFilter":9729,
			"minFilter":9987
		}
	],
	"buffers":[
		{
			"byteLength":253916,
			"uri":"scene.bin"
		}
	]
}
