{
	"asset":{
		"generator":"Khronos glTF Blender I/O v4.1.63",
		"version":"2.0"
	},
	"extensionsUsed":[
		"KHR_materials_specular",
		"KHR_materials_ior"
	],
	"scene":0,
	"scenes":[
		{
			"name":"Scene",
			"nodes":[
				0
			]
		}
	],
	"nodes":[
		{
			"mesh":0,
			"name":"BigStonePost_Pillar2_0.004",
			"rotation":[
				0,
				0.0006261193193495274,
				0,
				1
			],
			"scale":[
				0.01231107022613287,
				0.007837359793484211,
				0.012432733550667763
			],
			"translation":[
				0.8892682790756226,
				-0.01332646794617176,
				-0.38159918785095215
			]
		}
	],
	"materials":[
		{
			"doubleSided":true,
			"name":"Pillar2",
			"normalTexture":{
				"index":0
			},
			"pbrMetallicRoughness":{
				"baseColorTexture":{
					"index":1
				},
				"metallicFactor":0.6028951406478882,
				"metallicRoughnessTexture":{
					"index":2
				},
				"roughnessFactor":0.691046953201294
			}
		},
		{
			"doubleSided":true,
			"name":"FenceSpikes",
			"normalTexture":{
				"index":3
			},
			"pbrMetallicRoughness":{
				"baseColorTexture":{
					"index":4
				},
				"metallicRoughnessTexture":{
					"index":5
				},
				"roughnessFactor":0.7917917966842651
			}
		},
		{
			"doubleSided":true,
			"name":"Pillar1",
			"normalTexture":{
				"index":6
			},
			"pbrMetallicRoughness":{
				"baseColorTexture":{
					"index":7
				},
				"metallicFactor":0.7099366188049316,
				"metallicRoughnessTexture":{
					"index":8
				},
				"roughnessFactor":0.8043849468231201
			}
		},
		{
			"doubleSided":true,
			"name":"Railing",
			"normalTexture":{
				"index":9
			},
			"pbrMetallicRoughness":{
				"baseColorTexture":{
					"index":10
				},
				"metallicFactor":0.6973434686660767,
				"metallicRoughnessTexture":{
					"index":11
				},
				"roughnessFactor":0.8484607934951782
			}
		},
		{
			"doubleSided":true,
			"extensions":{
				"KHR_materials_specular":{
					"specularFactor":0.09861107915639877
				}
			},
			"name":"boards",
			"pbrMetallicRoughness":{
				"baseColorTexture":{
					"index":12
				},
				"metallicFactor":0
			}
		},
		{
			"doubleSided":true,
			"name":"frame",
			"pbrMetallicRoughness":{
				"baseColorFactor":[
					0.0290996003895998,
					0.011591799557209015,
					0.003860719967633486,
					1
				],
				"metallicFactor":0
			}
		},
		{
			"alphaMode":"BLEND",
			"doubleSided":true,
			"extensions":{
				"KHR_materials_specular":{
					"specularColorFactor":[
						0.0,
						0.0,
						0.0
					]
				},
				"KHR_materials_ior":{
					"ior":1000
				}
			},
			"name":"Branches0025_1_S",
			"pbrMetallicRoughness":{
				"baseColorTexture":{
					"index":13
				},
				"metallicFactor":0,
				"roughnessFactor":0.7900000214576721
			}
		},
		{
			"doubleSided":true,
			"extensions":{
				"KHR_materials_specular":{
					"specularColorFactor":[
						0.0,
						0.0,
						0.0
					]
				},
				"KHR_materials_ior":{
					"ior":1000
				}
			},
			"name":"bark.001",
			"pbrMetallicRoughness":{
				"baseColorTexture":{
					"index":14
				},
				"metallicFactor":0
			}
		}
	],
	"meshes":[
		{
			"name":"BigStonePost_Pillar2_0.004",
			"primitives":[
				{
					"attributes":{
						"POSITION":0,
						"NORMAL":1,
						"TEXCOORD_0":2,
						"TEXCOORD_1":3
					},
					"indices":4,
					"material":0
				},
				{
					"attributes":{
						"POSITION":5,
						"NORMAL":6,
						"TEXCOORD_0":7,
						"TEXCOORD_1":8
					},
					"indices":9,
					"material":1
				},
				{
					"attributes":{
						"POSITION":10,
						"NORMAL":11,
						"TEXCOORD_0":12,
						"TEXCOORD_1":13
					},
					"indices":14,
					"material":2
				},
				{
					"attributes":{
						"POSITION":15,
						"NORMAL":16,
						"TEXCOORD_0":17,
						"TEXCOORD_1":18
					},
					"indices":19,
					"material":3
				},
				{
					"attributes":{
						"POSITION":20,
						"NORMAL":21,
						"TEXCOORD_0":22,
						"TEXCOORD_1":23
					},
					"indices":24,
					"material":4
				},
				{
					"attributes":{
						"POSITION":25,
						"NORMAL":26,
						"TEXCOORD_0":27,
						"TEXCOORD_1":28
					},
					"indices":29,
					"material":5
				},
				{
					"attributes":{
						"POSITION":30,
						"NORMAL":31,
						"TEXCOORD_0":32,
						"TEXCOORD_1":33
					},
					"indices":34,
					"material":6
				},
				{
					"attributes":{
						"POSITION":35,
						"NORMAL":36,
						"TEXCOORD_0":37,
						"TEXCOORD_1":38
					},
					"indices":39,
					"material":7
				}
			]
		}
	],
	"textures":[
		{
			"sampler":0,
			"source":0
		},
		{
			"sampler":0,
			"source":1
		},
		{
			"sampler":0,
			"source":2
		},
		{
			"sampler":0,
			"source":3
		},
		{
			"sampler":0,
			"source":4
		},
		{
			"sampler":0,
			"source":5
		},
		{
			"sampler":0,
			"source":6
		},
		{
			"sampler":0,
			"source":7
		},
		{
			"sampler":0,
			"source":8
		},
		{
			"sampler":0,
			"source":9
		},
		{
			"sampler":0,
			"source":10
		},
		{
			"sampler":0,
			"source":11
		},
		{
			"sampler":0,
			"source":12
		},
		{
			"sampler":0,
			"source":13
		},
		{
			"sampler":0,
			"source":14
		}
	],
	"images":[
		{
			"mimeType":"image/jpeg",
			"name":"Pillar2_normal",
			"uri":"Pillar2_normal.jpg"
		},
		{
			"mimeType":"image/jpeg",
			"name":"Pillar2_baseColor",
			"uri":"Pillar2_baseColor.jpg"
		},
		{
			"mimeType":"image/jpeg",
			"name":"Pillar2_metallicRoughness",
			"uri":"Pillar2_metallicRoughness.jpg"
		},
		{
			"mimeType":"image/jpeg",
			"name":"FenceSpikes_normal",
			"uri":"FenceSpikes_normal.jpg"
		},
		{
			"mimeType":"image/jpeg",
			"name":"FenceSpikes_baseColor",
			"uri":"FenceSpikes_baseColor.jpg"
		},
		{
			"mimeType":"image/jpeg",
			"name":"FenceSpikes_metallicRoughness",
			"uri":"FenceSpikes_metallicRoughness.jpg"
		},
		{
			"mimeType":"image/jpeg",
			"name":"Pillar1_normal",
			"uri":"Pillar1_normal.jpg"
		},
		{
			"mimeType":"image/jpeg",
			"name":"Pillar1_baseColor",
			"uri":"Pillar1_baseColor.jpg"
		},
		{
			"mimeType":"image/jpeg",
			"name":"Pillar1_metallicRoughness",
			"uri":"Pillar1_metallicRoughness.jpg"
		},
		{
			"mimeType":"image/jpeg",
			"name":"Railing_normal",
			"uri":"Railing_normal.jpg"
		},
		{
			"mimeType":"image/jpeg",
			"name":"Railing_baseColor",
			"uri":"Railing_baseColor.jpg"
		},
		{
			"mimeType":"image/jpeg",
			"name":"Railing_metallicRoughness",
			"uri":"Railing_metallicRoughness.jpg"
		},
		{
			"mimeType":"image/jpeg",
			"name":"boards_baseColor",
			"uri":"boards_baseColor.jpg"
		},
		{
			"mimeType":"image/png",
			"name":"Branches0025_1_S_diffuse",
			"uri":"Branches0025_1_S_diffuse.png"
		},
		{
			"mimeType":"image/jpeg",
			"name":"bark_001_diffuse",
			"uri":"bark_001_diffuse.jpg"
		}
	],
	"accessors":[
		{
			"bufferView":0,
			"componentType":5126,
			"count":31167,
			"max":[
				2.2344541549682617,
				9.902588844299316,
				95.94882202148438
			],
			"min":[
				-101.43878936767578,
				-13.892970085144043,
				-2.1725053787231445
			],
			"type":"VEC3"
		},
		{
			"bufferView":1,
			"componentType":5126,
			"count":31167,
			"type":"VEC3"
		},
		{
			"bufferView":2,
			"componentType":5126,
			"count":31167,
			"type":"VEC2"
		},
		{
			"bufferView":3,
			"componentType":5126,
			"count":31167,
			"type":"VEC2"
		},
		{
			"bufferView":4,
			"componentType":5123,
			"count":129996,
			"type":"SCALAR"
		},
		{
			"bufferView":5,
			"componentType":5126,
			"count":20864,
			"max":[
				1.3354929685592651,
				13.923526763916016,
				94.5257339477539
			],
			"min":[
				-100.5420150756836,
				-3.174133777618408,
				-0.7329598665237427
			],
			"type":"VEC3"
		},
		{
			"bufferView":6,
			"componentType":5126,
			"count":20864,
			"type":"VEC3"
		},
		{
			"bufferView":7,
			"componentType":5126,
			"count":20864,
			"type":"VEC2"
		},
		{
			"bufferView":8,
			"componentType":5126,
			"count":20864,
			"type":"VEC2"
		},
		{
			"bufferView":9,
			"componentType":5123,
			"count":67584,
			"type":"SCALAR"
		},
		{
			"bufferView":10,
			"componentType":5126,
			"count":14220,
			"max":[
				2.5681545734405518,
				14.108973503112793,
				96.28523254394531
			],
			"min":[
				-101.76044464111328,
				-13.224263191223145,
				-2.5094497203826904
			],
			"type":"VEC3"
		},
		{
			"bufferView":11,
			"componentType":5126,
			"count":14220,
			"type":"VEC3"
		},
		{
			"bufferView":12,
			"componentType":5126,
			"count":14220,
			"type":"VEC2"
		},
		{
			"bufferView":13,
			"componentType":5126,
			"count":14220,
			"type":"VEC2"
		},
		{
			"bufferView":14,
			"componentType":5123,
			"count":56400,
			"type":"SCALAR"
		},
		{
			"bufferView":15,
			"componentType":5126,
			"count":7248,
			"max":[
				0.99088054895401,
				9.639982223510742,
				94.2034683227539
			],
			"min":[
				-100.20450592041016,
				0.485180139541626,
				-0.40770286321640015
			],
			"type":"VEC3"
		},
		{
			"bufferView":16,
			"componentType":5126,
			"count":7248,
			"type":"VEC3"
		},
		{
			"bufferView":17,
			"componentType":5126,
			"count":7248,
			"type":"VEC2"
		},
		{
			"bufferView":18,
			"componentType":5126,
			"count":7248,
			"type":"VEC2"
		},
		{
			"bufferView":19,
			"componentType":5123,
			"count":16704,
			"type":"SCALAR"
		},
		{
			"bufferView":20,
			"componentType":5126,
			"count":2596,
			"max":[
				-68.93793487548828,
				-1.5461845397949219,
				33.412723541259766
			],
			"min":[
				-86.14080047607422,
				-10.746451377868652,
				15.615636825561523
			],
			"type":"VEC3"
		},
		{
			"bufferView":21,
			"componentType":5126,
			"count":2596,
			"type":"VEC3"
		},
		{
			"bufferView":22,
			"componentType":5126,
			"count":2596,
			"type":"VEC2"
		},
		{
			"bufferView":23,
			"componentType":5126,
			"count":2596,
			"type":"VEC2"
		},
		{
			"bufferView":24,
			"componentType":5123,
			"count":3876,
			"type":"SCALAR"
		},
		{
			"bufferView":25,
			"componentType":5126,
			"count":1160,
			"max":[
				-71.49127960205078,
				-1.1219215393066406,
				30.69000244140625
			],
			"min":[
				-84.01848602294922,
				-13.382865905761719,
				17.935697555541992
			],
			"type":"VEC3"
		},
		{
			"bufferView":26,
			"componentType":5126,
			"count":1160,
			"type":"VEC3"
		},
		{
			"bufferView":27,
			"componentType":5126,
			"count":1160,
			"type":"VEC2"
		},
		{
			"bufferView":28,
			"componentType":5126,
			"count":1160,
			"type":"VEC2"
		},
		{
			"bufferView":29,
			"componentType":5123,
			"count":1740,
			"type":"SCALAR"
		},
		{
			"bufferView":30,
			"componentType":5126,
			"count":17470,
			"max":[
				16.635955810546875,
				99.91204833984375,
				108.52413177490234
			],
			"min":[
				-121.5609359741211,
				-14.555862426757812,
				-15.379388809204102
			],
			"type":"VEC3"
		},
		{
			"bufferView":31,
			"componentType":5126,
			"count":17470,
			"type":"VEC3"
		},
		{
			"bufferView":32,
			"componentType":5126,
			"count":17470,
			"type":"VEC2"
		},
		{
			"bufferView":33,
			"componentType":5126,
			"count":17470,
			"type":"VEC2"
		},
		{
			"bufferView":34,
			"componentType":5123,
			"count":29808,
			"type":"SCALAR"
		},
		{
			"bufferView":35,
			"componentType":5126,
			"count":207,
			"max":[
				-71.2203598022461,
				70.36817932128906,
				30.5609130859375
			],
			"min":[
				-96.56671142578125,
				-17.706756591796875,
				-0.3868560791015625
			],
			"type":"VEC3"
		},
		{
			"bufferView":36,
			"componentType":5126,
			"count":207,
			"type":"VEC3"
		},
		{
			"bufferView":37,
			"componentType":5126,
			"count":207,
			"type":"VEC2"
		},
		{
			"bufferView":38,
			"componentType":5126,
			"count":207,
			"type":"VEC2"
		},
		{
			"bufferView":39,
			"componentType":5123,
			"count":864,
			"type":"SCALAR"
		}
	],
	"bufferViews":[
		{
			"buffer":0,
			"byteLength":374004,
			"byteOffset":0,
			"target":34962
		},
		{
			"buffer":0,
			"byteLength":374004,
			"byteOffset":374004,
			"target":34962
		},
		{
			"buffer":0,
			"byteLength":249336,
			"byteOffset":748008,
			"target":34962
		},
		{
			"buffer":0,
			"byteLength":249336,
			"byteOffset":997344,
			"target":34962
		},
		{
			"buffer":0,
			"byteLength":259992,
			"byteOffset":1246680,
			"target":34963
		},
		{
			"buffer":0,
			"byteLength":250368,
			"byteOffset":1506672,
			"target":34962
		},
		{
			"buffer":0,
			"byteLength":250368,
			"byteOffset":1757040,
			"target":34962
		},
		{
			"buffer":0,
			"byteLength":166912,
			"byteOffset":2007408,
			"target":34962
		},
		{
			"buffer":0,
			"byteLength":166912,
			"byteOffset":2174320,
			"target":34962
		},
		{
			"buffer":0,
			"byteLength":135168,
			"byteOffset":2341232,
			"target":34963
		},
		{
			"buffer":0,
			"byteLength":170640,
			"byteOffset":2476400,
			"target":34962
		},
		{
			"buffer":0,
			"byteLength":170640,
			"byteOffset":2647040,
			"target":34962
		},
		{
			"buffer":0,
			"byteLength":113760,
			"byteOffset":2817680,
			"target":34962
		},
		{
			"buffer":0,
			"byteLength":113760,
			"byteOffset":2931440,
			"target":34962
		},
		{
			"buffer":0,
			"byteLength":112800,
			"byteOffset":3045200,
			"target":34963
		},
		{
			"buffer":0,
			"byteLength":86976,
			"byteOffset":3158000,
			"target":34962
		},
		{
			"buffer":0,
			"byteLength":86976,
			"byteOffset":3244976,
			"target":34962
		},
		{
			"buffer":0,
			"byteLength":57984,
			"byteOffset":3331952,
			"target":34962
		},
		{
			"buffer":0,
			"byteLength":57984,
			"byteOffset":3389936,
			"target":34962
		},
		{
			"buffer":0,
			"byteLength":33408,
			"byteOffset":3447920,
			"target":34963
		},
		{
			"buffer":0,
			"byteLength":31152,
			"byteOffset":3481328,
			"target":34962
		},
		{
			"buffer":0,
			"byteLength":31152,
			"byteOffset":3512480,
			"target":34962
		},
		{
			"buffer":0,
			"byteLength":20768,
			"byteOffset":3543632,
			"target":34962
		},
		{
			"buffer":0,
			"byteLength":20768,
			"byteOffset":3564400,
			"target":34962
		},
		{
			"buffer":0,
			"byteLength":7752,
			"byteOffset":3585168,
			"target":34963
		},
		{
			"buffer":0,
			"byteLength":13920,
			"byteOffset":3592920,
			"target":34962
		},
		{
			"buffer":0,
			"byteLength":13920,
			"byteOffset":3606840,
			"target":34962
		},
		{
			"buffer":0,
			"byteLength":9280,
			"byteOffset":3620760,
			"target":34962
		},
		{
			"buffer":0,
			"byteLength":9280,
			"byteOffset":3630040,
			"target":34962
		},
		{
			"buffer":0,
			"byteLength":3480,
			"byteOffset":3639320,
			"target":34963
		},
		{
			"buffer":0,
			"byteLength":209640,
			"byteOffset":3642800,
			"target":34962
		},
		{
			"buffer":0,
			"byteLength":209640,
			"byteOffset":3852440,
			"target":34962
		},
		{
			"buffer":0,
			"byteLength":139760,
			"byteOffset":4062080,
			"target":34962
		},
		{
			"buffer":0,
			"byteLength":139760,
			"byteOffset":4201840,
			"target":34962
		},
		{
			"buffer":0,
			"byteLength":59616,
			"byteOffset":4341600,
			"target":34963
		},
		{
			"buffer":0,
			"byteLength":2484,
			"byteOffset":4401216,
			"target":34962
		},
		{
			"buffer":0,
			"byteLength":2484,
			"byteOffset":4403700,
			"target":34962
		},
		{
			"buffer":0,
			"byteLength":1656,
			"byteOffset":4406184,
			"target":34962
		},
		{
			"buffer":0,
			"byteLength":1656,
			"byteOffset":4407840,
			"target":34962
		},
		{
			"buffer":0,
			"byteLength":1728,
			"byteOffset":4409496,
			"target":34963
		}
	],
	"samplers":[
		{
			"magFilter":9729,
			"minFilter":9987
		}
	],
	"buffers":[
		{
			"byteLength":4411224,
			"uri":"scene.bin"
		}
	]
}
