{
	"asset":{
		"generator":"Khronos glTF Blender I/O v4.1.63",
		"version":"2.0"
	},
	"extensionsUsed":[
		"KHR_materials_specular",
		"KHR_materials_ior"
	],
	"scene":0,
	"scenes":[
		{
			"name":"Scene",
			"nodes":[
				0,
				1,
				2,
				3,
				4
			]
		}
	],
	"nodes":[
		{
			"mesh":0,
			"name":"straightTrack1",
			"rotation":[
				0,
				0.7090309858322144,
				0,
				0.7051773071289062
			],
			"translation":[
				151.49354553222656,
				0,
				-124.9520034790039
			]
		},
		{
			"mesh":1,
			"name":"rightTrack",
			"rotation":[
				0,
				-0.7072833180427551,
				0,
				0.7069302201271057
			],
			"translation":[
				117.64141082763672,
				0,
				478.9562072753906
			]
		},
		{
			"mesh":2,
			"name":"leftTrack",
			"rotation":[
				-0.707098662853241,
				0,
				-0.7071149945259094,
				0
			],
			"scale":[
				-1.0000001192092896,
				-1,
				-1.0000001192092896
			],
			"translation":[
				118.35462188720703,
				0,
				-728.7588500976562
			]
		},
		{
			"mesh":3,
			"name":"straightTrack2",
			"rotation":[
				0,
				-0.7078745365142822,
				0,
				0.7063381671905518
			],
			"translation":[
				297.0710144042969,
				0,
				-126.63386535644531
			]
		},
		{
			"mesh":4,
			"name":"straightTrack3",
			"rotation":[
				0,
				0.7090308666229248,
				0,
				0.7051774859428406
			],
			"translation":[
				383.8305358886719,
				0,
				-124.9520034790039
			]
		}
	],
	"materials":[
		{
			"doubleSided":true,
			"extensions":{
				"KHR_materials_specular":{
					"specularColorTexture":{
						"index":0
					}
				},
				"KHR_materials_ior":{
					"ior":1000
				}
			},
			"name":"lambert1",
			"normalTexture":{
				"index":1
			},
			"pbrMetallicRoughness":{
				"baseColorTexture":{
					"index":2
				},
				"metallicFactor":0,
				"metallicRoughnessTexture":{
					"index":3
				}
			}
		}
	],
	"meshes":[
		{
			"name":"Track_01polySurface161_lambert1_0.009",
			"primitives":[
				{
					"attributes":{
						"POSITION":0,
						"NORMAL":1,
						"TEXCOORD_0":2
					},
					"indices":3,
					"material":0
				}
			]
		},
		{
			"name":"Track_01polySurface161_lambert1_0.010",
			"primitives":[
				{
					"attributes":{
						"POSITION":4,
						"NORMAL":5,
						"TEXCOORD_0":6
					},
					"indices":7,
					"material":0
				}
			]
		},
		{
			"name":"Track_01polySurface161_lambert1_0.012",
			"primitives":[
				{
					"attributes":{
						"POSITION":8,
						"NORMAL":9,
						"TEXCOORD_0":10
					},
					"indices":7,
					"material":0
				}
			]
		},
		{
			"name":"Track_01polySurface161_lambert1_0.014",
			"primitives":[
				{
					"attributes":{
						"POSITION":11,
						"NORMAL":12,
						"TEXCOORD_0":13
					},
					"indices":3,
					"material":0
				}
			]
		},
		{
			"name":"Track_01polySurface161_lambert1_0.015",
			"primitives":[
				{
					"attributes":{
						"POSITION":14,
						"NORMAL":15,
						"TEXCOORD_0":16
					},
					"indices":3,
					"material":0
				}
			]
		}
	],
	"textures":[
		{
			"sampler":0,
			"source":0
		},
		{
			"sampler":0,
			"source":1
		},
		{
			"sampler":0,
			"source":2
		},
		{
			"sampler":0,
			"source":3
		}
	],
	"images":[
		{
			"mimeType":"image/png",
			"name":"lambert1_specularGlossiness",
			"uri":"lambert1_specularGlossiness.png"
		},
		{
			"mimeType":"image/png",
			"name":"lambert1_normal",
			"uri":"lambert1_normal.png"
		},
		{
			"mimeType":"image/png",
			"name":"lambert1_diffuse",
			"uri":"lambert1_diffuse.png"
		},
		{
			"mimeType":"image/png",
			"name":"lambert1_specularGlossiness-1",
			"uri":"lambert1_specularGlossiness-1.png"
		}
	],
	"accessors":[
		{
			"bufferView":0,
			"componentType":5126,
			"count":2700,
			"max":[
				20.22669792175293,
				4.28943395614624,
				75
			],
			"min":[
				-19.77330207824707,
				-0.8301248550415039,
				-75
			],
			"type":"VEC3"
		},
		{
			"bufferView":1,
			"componentType":5126,
			"count":2700,
			"type":"VEC3"
		},
		{
			"bufferView":2,
			"componentType":5126,
			"count":2700,
			"type":"VEC2"
		},
		{
			"bufferView":3,
			"componentType":5123,
			"count":7008,
			"type":"SCALAR"
		},
		{
			"bufferView":4,
			"componentType":5126,
			"count":7566,
			"max":[
				-413.25140380859375,
				4.289434432983398,
				40.75196075439453
			],
			"min":[
				-624.2832641601562,
				-0.8301248550415039,
				-170.51226806640625
			],
			"type":"VEC3"
		},
		{
			"bufferView":5,
			"componentType":5126,
			"count":7566,
			"type":"VEC3"
		},
		{
			"bufferView":6,
			"componentType":5126,
			"count":7566,
			"type":"VEC2"
		},
		{
			"bufferView":7,
			"componentType":5123,
			"count":17616,
			"type":"SCALAR"
		},
		{
			"bufferView":8,
			"componentType":5126,
			"count":7566,
			"max":[
				-413.25140380859375,
				4.289434432983398,
				40.75196075439453
			],
			"min":[
				-624.2832641601562,
				-0.8301248550415039,
				-170.51226806640625
			],
			"type":"VEC3"
		},
		{
			"bufferView":9,
			"componentType":5126,
			"count":7566,
			"type":"VEC3"
		},
		{
			"bufferView":10,
			"componentType":5126,
			"count":7566,
			"type":"VEC2"
		},
		{
			"bufferView":11,
			"componentType":5126,
			"count":2700,
			"max":[
				20.22669792175293,
				4.28943395614624,
				75
			],
			"min":[
				-19.77330207824707,
				-0.8301248550415039,
				-75
			],
			"type":"VEC3"
		},
		{
			"bufferView":12,
			"componentType":5126,
			"count":2700,
			"type":"VEC3"
		},
		{
			"bufferView":13,
			"componentType":5126,
			"count":2700,
			"type":"VEC2"
		},
		{
			"bufferView":14,
			"componentType":5126,
			"count":2700,
			"max":[
				20.22669792175293,
				4.28943395614624,
				75
			],
			"min":[
				-19.77330207824707,
				-0.8301248550415039,
				-75
			],
			"type":"VEC3"
		},
		{
			"bufferView":15,
			"componentType":5126,
			"count":2700,
			"type":"VEC3"
		},
		{
			"bufferView":16,
			"componentType":5126,
			"count":2700,
			"type":"VEC2"
		}
	],
	"bufferViews":[
		{
			"buffer":0,
			"byteLength":32400,
			"byteOffset":0,
			"target":34962
		},
		{
			"buffer":0,
			"byteLength":32400,
			"byteOffset":32400,
			"target":34962
		},
		{
			"buffer":0,
			"byteLength":21600,
			"byteOffset":64800,
			"target":34962
		},
		{
			"buffer":0,
			"byteLength":14016,
			"byteOffset":86400,
			"target":34963
		},
		{
			"buffer":0,
			"byteLength":90792,
			"byteOffset":100416,
			"target":34962
		},
		{
			"buffer":0,
			"byteLength":90792,
			"byteOffset":191208,
			"target":34962
		},
		{
			"buffer":0,
			"byteLength":60528,
			"byteOffset":282000,
			"target":34962
		},
		{
			"buffer":0,
			"byteLength":35232,
			"byteOffset":342528,
			"target":34963
		},
		{
			"buffer":0,
			"byteLength":90792,
			"byteOffset":377760,
			"target":34962
		},
		{
			"buffer":0,
			"byteLength":90792,
			"byteOffset":468552,
			"target":34962
		},
		{
			"buffer":0,
			"byteLength":60528,
			"byteOffset":559344,
			"target":34962
		},
		{
			"buffer":0,
			"byteLength":32400,
			"byteOffset":619872,
			"target":34962
		},
		{
			"buffer":0,
			"byteLength":32400,
			"byteOffset":652272,
			"target":34962
		},
		{
			"buffer":0,
			"byteLength":21600,
			"byteOffset":684672,
			"target":34962
		},
		{
			"buffer":0,
			"byteLength":32400,
			"byteOffset":706272,
			"target":34962
		},
		{
			"buffer":0,
			"byteLength":32400,
			"byteOffset":738672,
			"target":34962
		},
		{
			"buffer":0,
			"byteLength":21600,
			"byteOffset":771072,
			"target":34962
		}
	],
	"samplers":[
		{
			"magFilter":9729,
			"minFilter":9987
		}
	],
	"buffers":[
		{
			"byteLength":792672,
			"uri":"track8.bin"
		}
	]
}
