{
	"asset":{
		"generator":"Khronos glTF Blender I/O v4.1.63",
		"version":"2.0"
	},
	"extensionsUsed":[
		"KHR_materials_specular",
		"KHR_materials_ior"
	],
	"scene":0,
	"scenes":[
		{
			"name":"Scene",
			"nodes":[
				0,
				1,
				2
			]
		}
	],
	"nodes":[
		{
			"mesh":0,
			"name":"Track_01polySurface161_lambert1_0.001",
			"translation":[
				182.81954956054688,
				0,
				565.6553955078125
			]
		},
		{
			"mesh":1,
			"name":"Track_01polySurface161_lambert1_0.005",
			"rotation":[
				0,
				-0.9999987483024597,
				0,
				0.0015897692646831274
			],
			"translation":[
				-420.2627868652344,
				0,
				534.4879150390625
			]
		},
		{
			"mesh":2,
			"name":"Track_01polySurface161_lambert1_0.006",
			"translation":[
				182.81954956054688,
				0,
				625.6643676757812
			]
		}
	],
	"materials":[
		{
			"doubleSided":true,
			"extensions":{
				"KHR_materials_specular":{
					"specularColorTexture":{
						"index":0
					}
				},
				"KHR_materials_ior":{
					"ior":1000
				}
			},
			"name":"lambert1",
			"normalTexture":{
				"index":1
			},
			"pbrMetallicRoughness":{
				"baseColorTexture":{
					"index":2
				},
				"metallicFactor":0,
				"metallicRoughnessTexture":{
					"index":3
				}
			}
		}
	],
	"meshes":[
		{
			"name":"Track_01polySurface161_lambert1_0.001",
			"primitives":[
				{
					"attributes":{
						"POSITION":0,
						"NORMAL":1,
						"TEXCOORD_0":2
					},
					"indices":3,
					"material":0
				}
			]
		},
		{
			"name":"Track_01polySurface161_lambert1_0.005",
			"primitives":[
				{
					"attributes":{
						"POSITION":4,
						"NORMAL":5,
						"TEXCOORD_0":6
					},
					"indices":7,
					"material":0
				}
			]
		},
		{
			"name":"Track_01polySurface161_lambert1_0.006",
			"primitives":[
				{
					"attributes":{
						"POSITION":8,
						"NORMAL":9,
						"TEXCOORD_0":10
					},
					"indices":3,
					"material":0
				}
			]
		}
	],
	"textures":[
		{
			"sampler":0,
			"source":0
		},
		{
			"sampler":0,
			"source":1
		},
		{
			"sampler":0,
			"source":2
		},
		{
			"sampler":0,
			"source":3
		}
	],
	"images":[
		{
			"mimeType":"image/png",
			"name":"lambert1_specularGlossiness",
			"uri":"lambert1_specularGlossiness.png"
		},
		{
			"mimeType":"image/png",
			"name":"lambert1_normal",
			"uri":"lambert1_normal.png"
		},
		{
			"mimeType":"image/png",
			"name":"lambert1_diffuse",
			"uri":"lambert1_diffuse.png"
		},
		{
			"mimeType":"image/png",
			"name":"lambert1_specularGlossiness",
			"uri":"lambert1_specularGlossiness-1.png"
		}
	],
	"accessors":[
		{
			"bufferView":0,
			"componentType":5126,
			"count":2700,
			"max":[
				20.22669792175293,
				4.28943395614624,
				75
			],
			"min":[
				-19.77330207824707,
				-0.8301248550415039,
				-75
			],
			"type":"VEC3"
		},
		{
			"bufferView":1,
			"componentType":5126,
			"count":2700,
			"type":"VEC3"
		},
		{
			"bufferView":2,
			"componentType":5126,
			"count":2700,
			"type":"VEC2"
		},
		{
			"bufferView":3,
			"componentType":5123,
			"count":7008,
			"type":"SCALAR"
		},
		{
			"bufferView":4,
			"componentType":5126,
			"count":7551,
			"max":[
				-413.25140380859375,
				4.289434432983398,
				40.75196075439453
			],
			"min":[
				-624.2832641601562,
				-0.8301248550415039,
				-170.51226806640625
			],
			"type":"VEC3"
		},
		{
			"bufferView":5,
			"componentType":5126,
			"count":7551,
			"type":"VEC3"
		},
		{
			"bufferView":6,
			"componentType":5126,
			"count":7551,
			"type":"VEC2"
		},
		{
			"bufferView":7,
			"componentType":5123,
			"count":17616,
			"type":"SCALAR"
		},
		{
			"bufferView":8,
			"componentType":5126,
			"count":2700,
			"max":[
				20.22669792175293,
				4.28943395614624,
				75
			],
			"min":[
				-19.77330207824707,
				-0.8301248550415039,
				-75
			],
			"type":"VEC3"
		},
		{
			"bufferView":9,
			"componentType":5126,
			"count":2700,
			"type":"VEC3"
		},
		{
			"bufferView":10,
			"componentType":5126,
			"count":2700,
			"type":"VEC2"
		}
	],
	"bufferViews":[
		{
			"buffer":0,
			"byteLength":32400,
			"byteOffset":0,
			"target":34962
		},
		{
			"buffer":0,
			"byteLength":32400,
			"byteOffset":32400,
			"target":34962
		},
		{
			"buffer":0,
			"byteLength":21600,
			"byteOffset":64800,
			"target":34962
		},
		{
			"buffer":0,
			"byteLength":14016,
			"byteOffset":86400,
			"target":34963
		},
		{
			"buffer":0,
			"byteLength":90612,
			"byteOffset":100416,
			"target":34962
		},
		{
			"buffer":0,
			"byteLength":90612,
			"byteOffset":191028,
			"target":34962
		},
		{
			"buffer":0,
			"byteLength":60408,
			"byteOffset":281640,
			"target":34962
		},
		{
			"buffer":0,
			"byteLength":35232,
			"byteOffset":342048,
			"target":34963
		},
		{
			"buffer":0,
			"byteLength":32400,
			"byteOffset":377280,
			"target":34962
		},
		{
			"buffer":0,
			"byteLength":32400,
			"byteOffset":409680,
			"target":34962
		},
		{
			"buffer":0,
			"byteLength":21600,
			"byteOffset":442080,
			"target":34962
		}
	],
	"samplers":[
		{
			"magFilter":9729,
			"minFilter":9987
		}
	],
	"buffers":[
		{
			"byteLength":463680,
			"uri":"track6.bin"
		}
	]
}
