{
	"asset":{
		"generator":"Khronos glTF Blender I/O v4.1.63",
		"version":"2.0"
	},
	"extensionsUsed":[
		"KHR_materials_specular",
		"KHR_materials_ior"
	],
	"scene":0,
	"scenes":[
		{
			"name":"Scene",
			"nodes":[
				0
			]
		}
	],
	"nodes":[
		{
			"mesh":0,
			"name":"Track_01polySurface161_lambert1_0.005",
			"rotation":[
				0,
				0.9999998807907104,
				0,
				0.0006408936460502446
			],
			"translation":[
				-420.1510925292969,
				0,
				530.7338256835938
			]
		}
	],
	"materials":[
		{
			"doubleSided":true,
			"extensions":{
				"KHR_materials_specular":{
					"specularColorTexture":{
						"index":0
					}
				},
				"KHR_materials_ior":{
					"ior":1000
				}
			},
			"name":"lambert1",
			"normalTexture":{
				"index":1
			},
			"pbrMetallicRoughness":{
				"baseColorTexture":{
					"index":2
				},
				"metallicFactor":0,
				"metallicRoughnessTexture":{
					"index":3
				}
			}
		}
	],
	"meshes":[
		{
			"name":"Track_01polySurface161_lambert1_0.005",
			"primitives":[
				{
					"attributes":{
						"POSITION":0,
						"NORMAL":1,
						"TEXCOORD_0":2
					},
					"indices":3,
					"material":0
				}
			]
		}
	],
	"textures":[
		{
			"sampler":0,
			"source":0
		},
		{
			"sampler":0,
			"source":1
		},
		{
			"sampler":0,
			"source":2
		},
		{
			"sampler":0,
			"source":3
		}
	],
	"images":[
		{
			"mimeType":"image/png",
			"name":"lambert1_specularGlossiness",
			"uri":"lambert1_specularGlossiness.png"
		},
		{
			"mimeType":"image/png",
			"name":"lambert1_normal",
			"uri":"lambert1_normal.png"
		},
		{
			"mimeType":"image/png",
			"name":"lambert1_diffuse",
			"uri":"lambert1_diffuse.png"
		},
		{
			"mimeType":"image/png",
			"name":"lambert1_specularGlossiness",
			"uri":"lambert1_specularGlossiness-1.png"
		}
	],
	"accessors":[
		{
			"bufferView":0,
			"componentType":5126,
			"count":7551,
			"max":[
				-413.25140380859375,
				4.289434432983398,
				40.75196075439453
			],
			"min":[
				-624.2832641601562,
				-0.8301248550415039,
				-170.51226806640625
			],
			"type":"VEC3"
		},
		{
			"bufferView":1,
			"componentType":5126,
			"count":7551,
			"type":"VEC3"
		},
		{
			"bufferView":2,
			"componentType":5126,
			"count":7551,
			"type":"VEC2"
		},
		{
			"bufferView":3,
			"componentType":5123,
			"count":17616,
			"type":"SCALAR"
		}
	],
	"bufferViews":[
		{
			"buffer":0,
			"byteLength":90612,
			"byteOffset":0,
			"target":34962
		},
		{
			"buffer":0,
			"byteLength":90612,
			"byteOffset":90612,
			"target":34962
		},
		{
			"buffer":0,
			"byteLength":60408,
			"byteOffset":181224,
			"target":34962
		},
		{
			"buffer":0,
			"byteLength":35232,
			"byteOffset":241632,
			"target":34963
		}
	],
	"samplers":[
		{
			"magFilter":9729,
			"minFilter":9987
		}
	],
	"buffers":[
		{
			"byteLength":276864,
			"uri":"track5.bin"
		}
	]
}
