{
	"asset":{
		"generator":"Khronos glTF Blender I/O v4.1.63",
		"version":"2.0"
	},
	"extensionsUsed":[
		"KHR_materials_specular",
		"KHR_materials_ior"
	],
	"scene":0,
	"scenes":[
		{
			"name":"Scene",
			"nodes":[
				0
			]
		}
	],
	"nodes":[
		{
			"mesh":0,
			"name":"Track_01polySurface161_lambert1_0.002",
			"rotation":[
				0,
				0.9577400088310242,
				0,
				0.2876354455947876
			],
			"translation":[
				0,
				-1.4399993419647217,
				0
			]
		}
	],
	"materials":[
		{
			"doubleSided":true,
			"extensions":{
				"KHR_materials_specular":{
					"specularColorTexture":{
						"index":0
					}
				},
				"KHR_materials_ior":{
					"ior":1000
				}
			},
			"name":"lambert1",
			"normalTexture":{
				"index":1
			},
			"pbrMetallicRoughness":{
				"baseColorTexture":{
					"index":2
				},
				"metallicFactor":0,
				"metallicRoughnessTexture":{
					"index":3
				}
			}
		}
	],
	"meshes":[
		{
			"name":"Track_01polySurface161_lambert1_0.002",
			"primitives":[
				{
					"attributes":{
						"POSITION":0,
						"NORMAL":1,
						"TEXCOORD_0":2
					},
					"indices":3,
					"material":0
				}
			]
		}
	],
	"textures":[
		{
			"sampler":0,
			"source":0
		},
		{
			"sampler":0,
			"source":1
		},
		{
			"sampler":0,
			"source":2
		},
		{
			"sampler":0,
			"source":3
		}
	],
	"images":[
		{
			"mimeType":"image/png",
			"name":"lambert1_specularGlossiness",
			"uri":"lambert1_specularGlossiness.png"
		},
		{
			"mimeType":"image/png",
			"name":"lambert1_normal",
			"uri":"lambert1_normal.png"
		},
		{
			"mimeType":"image/png",
			"name":"lambert1_diffuse",
			"uri":"lambert1_diffuse.png"
		},
		{
			"mimeType":"image/png",
			"name":"lambert1_specularGlossiness",
			"uri":"lambert1_specularGlossiness-1.png"
		}
	],
	"accessors":[
		{
			"bufferView":0,
			"componentType":5126,
			"count":6980,
			"max":[
				1.6844825744628906,
				4.289434432983398,
				204.65541076660156
			],
			"min":[
				-119.66655731201172,
				-0.8301248550415039,
				-79.46305084228516
			],
			"type":"VEC3"
		},
		{
			"bufferView":1,
			"componentType":5126,
			"count":6980,
			"type":"VEC3"
		},
		{
			"bufferView":2,
			"componentType":5126,
			"count":6980,
			"type":"VEC2"
		},
		{
			"bufferView":3,
			"componentType":5123,
			"count":17712,
			"type":"SCALAR"
		}
	],
	"bufferViews":[
		{
			"buffer":0,
			"byteLength":83760,
			"byteOffset":0,
			"target":34962
		},
		{
			"buffer":0,
			"byteLength":83760,
			"byteOffset":83760,
			"target":34962
		},
		{
			"buffer":0,
			"byteLength":55840,
			"byteOffset":167520,
			"target":34962
		},
		{
			"buffer":0,
			"byteLength":35424,
			"byteOffset":223360,
			"target":34963
		}
	],
	"samplers":[
		{
			"magFilter":9729,
			"minFilter":9987
		}
	],
	"buffers":[
		{
			"byteLength":258784,
			"uri":"track2.bin"
		}
	]
}
