{
	"asset":{
		"generator":"Khronos glTF Blender I/O v4.1.63",
		"version":"2.0"
	},
	"scene":0,
	"scenes":[
		{
			"name":"Scene",
			"nodes":[
				7
			]
		}
	],
	"nodes":[
		{
			"mesh":0,
			"name":"Roof_lp.001_Glass_mat_0"
		},
		{
			"mesh":1,
			"name":"Roof_lp.001_Roof_Tile_0"
		},
		{
			"mesh":2,
			"name":"Roof_lp.001_School_0"
		},
		{
			"mesh":3,
			"name":"Roof_lp.001_Wood_Tile_0"
		},
		{
			"children":[
				0,
				1,
				2,
				3
			],
			"name":"Roof_lp.001",
			"rotation":[
				-0.70710688829422,
				0,
				0,
				0.7071066498756409
			],
			"scale":[
				100,
				99.99999237060547,
				99.99999237060547
			]
		},
		{
			"children":[
				4
			],
			"name":"RootNode.002"
		},
		{
			"children":[
				5
			],
			"name":"941b70a20cbe44aa8e798029e578e2a5.fbx",
			"rotation":[
				0.70710688829422,
				0,
				0,
				0.7071066498756409
			]
		},
		{
			"children":[
				6
			],
			"name":"Sketchfab_model.001",
			"rotation":[
				-0.7071067690849304,
				0,
				0,
				0.7071068286895752
			],
			"scale":[
				1.2671362161636353,
				1.2671362161636353,
				1.2671362161636353
			]
		}
	],
	"materials":[
		{
			"alphaMode":"BLEND",
			"doubleSided":true,
			"name":"Glass_mat",
			"pbrMetallicRoughness":{
				"baseColorFactor":[
					0.011817424558103085,
					0.01860125921666622,
					0.02074251137673855,
					0.9285442233085632
				],
				"metallicRoughnessTexture":{
					"index":0
				},
				"roughnessFactor":0.09927591681480408
			}
		},
		{
			"doubleSided":true,
			"name":"Roof_Tile",
			"normalTexture":{
				"index":1
			},
			"pbrMetallicRoughness":{
				"baseColorTexture":{
					"index":2
				},
				"metallicRoughnessTexture":{
					"index":3
				}
			}
		},
		{
			"doubleSided":true,
			"name":"School",
			"normalTexture":{
				"index":4
			},
			"occlusionTexture":{
				"index":5
			},
			"pbrMetallicRoughness":{
				"baseColorTexture":{
					"index":6
				},
				"metallicRoughnessTexture":{
					"index":5
				}
			}
		},
		{
			"doubleSided":true,
			"name":"Wood_Tile",
			"normalTexture":{
				"index":7
			},
			"pbrMetallicRoughness":{
				"baseColorTexture":{
					"index":8
				},
				"metallicRoughnessTexture":{
					"index":9
				}
			}
		}
	],
	"meshes":[
		{
			"name":"Roof_lp.001_Glass_mat_0",
			"primitives":[
				{
					"attributes":{
						"POSITION":0,
						"NORMAL":1,
						"TEXCOORD_0":2
					},
					"indices":3,
					"material":0
				}
			]
		},
		{
			"name":"Roof_lp.001_Roof_Tile_0",
			"primitives":[
				{
					"attributes":{
						"POSITION":4,
						"NORMAL":5,
						"TEXCOORD_0":6
					},
					"indices":7,
					"material":1
				}
			]
		},
		{
			"name":"Roof_lp.001_School_0",
			"primitives":[
				{
					"attributes":{
						"POSITION":8,
						"NORMAL":9,
						"TEXCOORD_0":10
					},
					"indices":11,
					"material":2
				}
			]
		},
		{
			"name":"Roof_lp.001_Wood_Tile_0",
			"primitives":[
				{
					"attributes":{
						"POSITION":12,
						"NORMAL":13,
						"TEXCOORD_0":14
					},
					"indices":15,
					"material":3
				}
			]
		}
	],
	"textures":[
		{
			"sampler":0,
			"source":0
		},
		{
			"sampler":0,
			"source":1
		},
		{
			"sampler":0,
			"source":2
		},
		{
			"sampler":0,
			"source":3
		},
		{
			"sampler":0,
			"source":4
		},
		{
			"sampler":0,
			"source":5
		},
		{
			"sampler":0,
			"source":6
		},
		{
			"sampler":0,
			"source":7
		},
		{
			"sampler":0,
			"source":8
		},
		{
			"sampler":0,
			"source":9
		}
	],
	"images":[
		{
			"mimeType":"image/jpeg",
			"name":"Glass_mat_metallicRoughness",
			"uri":"Glass_mat_metallicRoughness.jpg"
		},
		{
			"mimeType":"image/jpeg",
			"name":"Roof_Tile_normal",
			"uri":"Roof_Tile_normal.jpg"
		},
		{
			"mimeType":"image/jpeg",
			"name":"Roof_Tile_baseColor",
			"uri":"Roof_Tile_baseColor.jpg"
		},
		{
			"mimeType":"image/jpeg",
			"name":"Roof_Tile_metallicRoughness",
			"uri":"Roof_Tile_metallicRoughness.jpg"
		},
		{
			"mimeType":"image/jpeg",
			"name":"School_normal",
			"uri":"School_normal.jpg"
		},
		{
			"mimeType":"image/jpeg",
			"name":"School_metallicRoughness",
			"uri":"School_metallicRoughness.jpg"
		},
		{
			"mimeType":"image/jpeg",
			"name":"School_baseColor",
			"uri":"School_baseColor.jpg"
		},
		{
			"mimeType":"image/jpeg",
			"name":"Wood_Tile_normal",
			"uri":"Wood_Tile_normal.jpg"
		},
		{
			"mimeType":"image/jpeg",
			"name":"Wood_Tile_baseColor",
			"uri":"Wood_Tile_baseColor.jpg"
		},
		{
			"mimeType":"image/jpeg",
			"name":"Wood_Tile_metallicRoughness",
			"uri":"Wood_Tile_metallicRoughness.jpg"
		}
	],
	"accessors":[
		{
			"bufferView":0,
			"componentType":5126,
			"count":106,
			"max":[
				1.2776832580566406,
				0.6206631660461426,
				0.895604133605957
			],
			"min":[
				-1.0299750566482544,
				-0.6241276264190674,
				0.39409953355789185
			],
			"type":"VEC3"
		},
		{
			"bufferView":1,
			"componentType":5126,
			"count":106,
			"type":"VEC3"
		},
		{
			"bufferView":2,
			"componentType":5126,
			"count":106,
			"type":"VEC2"
		},
		{
			"bufferView":3,
			"componentType":5123,
			"count":138,
			"type":"SCALAR"
		},
		{
			"bufferView":4,
			"componentType":5126,
			"count":216,
			"max":[
				1.3651353120803833,
				0.6849091053009033,
				1.7631120681762695
			],
			"min":[
				-1.3644243478775024,
				-0.6849091053009033,
				1.0762667655944824
			],
			"type":"VEC3"
		},
		{
			"bufferView":5,
			"componentType":5126,
			"count":216,
			"type":"VEC3"
		},
		{
			"bufferView":6,
			"componentType":5126,
			"count":216,
			"type":"VEC2"
		},
		{
			"bufferView":7,
			"componentType":5123,
			"count":216,
			"type":"SCALAR"
		},
		{
			"bufferView":8,
			"componentType":5126,
			"count":4527,
			"max":[
				1.3863861560821533,
				0.6795347929000854,
				2.593151330947876
			],
			"min":[
				-1.3863862752914429,
				-0.6795347929000854,
				0
			],
			"type":"VEC3"
		},
		{
			"bufferView":9,
			"componentType":5126,
			"count":4527,
			"type":"VEC3"
		},
		{
			"bufferView":10,
			"componentType":5126,
			"count":4527,
			"type":"VEC2"
		},
		{
			"bufferView":11,
			"componentType":5123,
			"count":10266,
			"type":"SCALAR"
		},
		{
			"bufferView":12,
			"componentType":5126,
			"count":258,
			"max":[
				1.278831124305725,
				0.6281436681747437,
				1.7209367752075195
			],
			"min":[
				-1.2780929803848267,
				-0.6384053826332092,
				0.09243926405906677
			],
			"type":"VEC3"
		},
		{
			"bufferView":13,
			"componentType":5126,
			"count":258,
			"type":"VEC3"
		},
		{
			"bufferView":14,
			"componentType":5126,
			"count":258,
			"type":"VEC2"
		},
		{
			"bufferView":15,
			"componentType":5123,
			"count":510,
			"type":"SCALAR"
		}
	],
	"bufferViews":[
		{
			"buffer":0,
			"byteLength":1272,
			"byteOffset":0,
			"target":34962
		},
		{
			"buffer":0,
			"byteLength":1272,
			"byteOffset":1272,
			"target":34962
		},
		{
			"buffer":0,
			"byteLength":848,
			"byteOffset":2544,
			"target":34962
		},
		{
			"buffer":0,
			"byteLength":276,
			"byteOffset":3392,
			"target":34963
		},
		{
			"buffer":0,
			"byteLength":2592,
			"byteOffset":3668,
			"target":34962
		},
		{
			"buffer":0,
			"byteLength":2592,
			"byteOffset":6260,
			"target":34962
		},
		{
			"buffer":0,
			"byteLength":1728,
			"byteOffset":8852,
			"target":34962
		},
		{
			"buffer":0,
			"byteLength":432,
			"byteOffset":10580,
			"target":34963
		},
		{
			"buffer":0,
			"byteLength":54324,
			"byteOffset":11012,
			"target":34962
		},
		{
			"buffer":0,
			"byteLength":54324,
			"byteOffset":65336,
			"target":34962
		},
		{
			"buffer":0,
			"byteLength":36216,
			"byteOffset":119660,
			"target":34962
		},
		{
			"buffer":0,
			"byteLength":20532,
			"byteOffset":155876,
			"target":34963
		},
		{
			"buffer":0,
			"byteLength":3096,
			"byteOffset":176408,
			"target":34962
		},
		{
			"buffer":0,
			"byteLength":3096,
			"byteOffset":179504,
			"target":34962
		},
		{
			"buffer":0,
			"byteLength":2064,
			"byteOffset":182600,
			"target":34962
		},
		{
			"buffer":0,
			"byteLength":1020,
			"byteOffset":184664,
			"target":34963
		}
	],
	"samplers":[
		{
			"magFilter":9729,
			"minFilter":9987
		}
	],
	"buffers":[
		{
			"byteLength":185684,
			"uri":"scene.bin"
		}
	]
}
