{
	"asset":{
		"generator":"Khronos glTF Blender I/O v4.1.63",
		"version":"2.0"
	},
	"extensionsUsed":[
		"KHR_materials_specular",
		"KHR_materials_ior"
	],
	"scene":0,
	"scenes":[
		{
			"name":"Scene",
			"nodes":[
				0
			]
		}
	],
	"nodes":[
		{
			"mesh":0,
			"name":"9 house_9_0",
			"scale":[
				0.009999999776482582,
				0.010000001639127731,
				0.010000001639127731
			],
			"translation":[
				-31.122806549072266,
				0.7289362549781799,
				1.9551990032196045
			]
		}
	],
	"materials":[
		{
			"doubleSided":true,
			"extensions":{
				"KHR_materials_specular":{
					"specularColorTexture":{
						"index":0
					}
				},
				"KHR_materials_ior":{
					"ior":1000
				}
			},
			"name":"material",
			"normalTexture":{
				"index":1
			},
			"pbrMetallicRoughness":{
				"baseColorTexture":{
					"index":2
				},
				"metallicFactor":0,
				"metallicRoughnessTexture":{
					"index":3
				}
			}
		}
	],
	"meshes":[
		{
			"name":"9 house_9_0",
			"primitives":[
				{
					"attributes":{
						"POSITION":0,
						"NORMAL":1,
						"TEXCOORD_0":2,
						"TEXCOORD_1":3
					},
					"indices":4,
					"material":0
				}
			]
		}
	],
	"textures":[
		{
			"sampler":0,
			"source":0
		},
		{
			"sampler":0,
			"source":1
		},
		{
			"sampler":0,
			"source":2
		},
		{
			"sampler":0,
			"source":3
		}
	],
	"images":[
		{
			"mimeType":"image/png",
			"name":"material_specularGlossiness",
			"uri":"material_specularGlossiness.png"
		},
		{
			"mimeType":"image/png",
			"name":"material_normal",
			"uri":"material_normal.png"
		},
		{
			"mimeType":"image/png",
			"name":"material_diffuse",
			"uri":"material_diffuse.png"
		},
		{
			"mimeType":"image/png",
			"name":"material_specularGlossiness",
			"uri":"material_specularGlossiness-1.png"
		}
	],
	"accessors":[
		{
			"bufferView":0,
			"componentType":5126,
			"count":4974,
			"max":[
				165.99993896484375,
				1178.185791015625,
				747.6815795898438
			],
			"min":[
				-826,
				0,
				-476.906494140625
			],
			"type":"VEC3"
		},
		{
			"bufferView":1,
			"componentType":5126,
			"count":4974,
			"type":"VEC3"
		},
		{
			"bufferView":2,
			"componentType":5126,
			"count":4974,
			"type":"VEC2"
		},
		{
			"bufferView":3,
			"componentType":5126,
			"count":4974,
			"type":"VEC2"
		},
		{
			"bufferView":4,
			"componentType":5123,
			"count":10374,
			"type":"SCALAR"
		}
	],
	"bufferViews":[
		{
			"buffer":0,
			"byteLength":59688,
			"byteOffset":0,
			"target":34962
		},
		{
			"buffer":0,
			"byteLength":59688,
			"byteOffset":59688,
			"target":34962
		},
		{
			"buffer":0,
			"byteLength":39792,
			"byteOffset":119376,
			"target":34962
		},
		{
			"buffer":0,
			"byteLength":39792,
			"byteOffset":159168,
			"target":34962
		},
		{
			"buffer":0,
			"byteLength":20748,
			"byteOffset":198960,
			"target":34963
		}
	],
	"samplers":[
		{
			"magFilter":9729,
			"minFilter":9987
		}
	],
	"buffers":[
		{
			"byteLength":219708,
			"uri":"scene.bin"
		}
	]
}
