{
	"asset":{
		"generator":"Khronos glTF Blender I/O v4.1.63",
		"version":"2.0"
	},
	"extensionsUsed":[
		"KHR_materials_specular",
		"KHR_materials_ior"
	],
	"scene":0,
	"scenes":[
		{
			"name":"Scene",
			"nodes":[
				0
			]
		}
	],
	"nodes":[
		{
			"mesh":0,
			"name":"Track_01polySurface161_lambert1_0.004",
			"rotation":[
				0,
				0.007322641089558601,
				0,
				0.9999731779098511
			],
			"translation":[
				-137.2606658935547,
				44.77278518676758,
				-29.884939193725586
			]
		}
	],
	"materials":[
		{
			"doubleSided":true,
			"extensions":{
				"KHR_materials_specular":{
					"specularColorTexture":{
						"index":0
					}
				},
				"KHR_materials_ior":{
					"ior":1000
				}
			},
			"name":"lambert1",
			"normalTexture":{
				"index":1
			},
			"pbrMetallicRoughness":{
				"baseColorTexture":{
					"index":2
				},
				"metallicFactor":0,
				"metallicRoughnessTexture":{
					"index":3
				}
			}
		}
	],
	"meshes":[
		{
			"name":"Track_01polySurface161_lambert1_0.004",
			"primitives":[
				{
					"attributes":{
						"POSITION":0,
						"NORMAL":1,
						"TEXCOORD_0":2
					},
					"indices":3,
					"material":0
				}
			]
		}
	],
	"textures":[
		{
			"sampler":0,
			"source":0
		},
		{
			"sampler":0,
			"source":1
		},
		{
			"sampler":0,
			"source":2
		},
		{
			"sampler":0,
			"source":3
		}
	],
	"images":[
		{
			"mimeType":"image/png",
			"name":"lambert1_specularGlossiness",
			"uri":"lambert1_specularGlossiness.png"
		},
		{
			"mimeType":"image/png",
			"name":"lambert1_normal",
			"uri":"lambert1_normal.png"
		},
		{
			"mimeType":"image/png",
			"name":"lambert1_diffuse",
			"uri":"lambert1_diffuse.png"
		},
		{
			"mimeType":"image/png",
			"name":"lambert1_specularGlossiness",
			"uri":"lambert1_specularGlossiness-1.png"
		}
	],
	"accessors":[
		{
			"bufferView":0,
			"componentType":5126,
			"count":15311,
			"max":[
				527.8995361328125,
				-55.786582946777344,
				443.073486328125
			],
			"min":[
				138.19805908203125,
				-60.90613555908203,
				21.61365509033203
			],
			"type":"VEC3"
		},
		{
			"bufferView":1,
			"componentType":5126,
			"count":15311,
			"type":"VEC3"
		},
		{
			"bufferView":2,
			"componentType":5126,
			"count":15311,
			"type":"VEC2"
		},
		{
			"bufferView":3,
			"componentType":5123,
			"count":35229,
			"type":"SCALAR"
		}
	],
	"bufferViews":[
		{
			"buffer":0,
			"byteLength":183732,
			"byteOffset":0,
			"target":34962
		},
		{
			"buffer":0,
			"byteLength":183732,
			"byteOffset":183732,
			"target":34962
		},
		{
			"buffer":0,
			"byteLength":122488,
			"byteOffset":367464,
			"target":34962
		},
		{
			"buffer":0,
			"byteLength":70458,
			"byteOffset":489952,
			"target":34963
		}
	],
	"samplers":[
		{
			"magFilter":9729,
			"minFilter":9987
		}
	],
	"buffers":[
		{
			"byteLength":560412,
			"uri":"track4.bin"
		}
	]
}
