{
  "accessors": [
    {
      "bufferView": 1,
      "componentType": 5126,
      "count": 65532,
      "max": [
        100.0,
        77.66471099853516,
        100.0
      ],
      "min": [
        -99.99030303955078,
        0.0,
        -100.0
      ],
      "type": "VEC3"
    },
    {
      "bufferView": 1,
      "byteOffset": 786384,
      "componentType": 5126,
      "count": 65532,
      "max": [
        1.0,
        1.0,
        1.0
      ],
      "min": [
        -1.0,
        -0.9999998807907104,
        -1.0
      ],
      "type": "VEC3"
    },
    {
      "bufferView": 2,
      "componentType": 5126,
      "count": 65532,
      "max": [
        0.7803921699523926,
        0.8352941274642944,
        0.8705882430076599,
        1.0
      ],
      "min": [
        0.0235294122248888,
        0.0235294122248888,
        0.0,
        0.2980392277240753
      ],
      "type": "VEC4"
    },
    {
      "bufferView": 0,
      "componentType": 5125,
      "count": 91722,
      "type": "SCALAR"
    },
    {
      "bufferView": 1,
      "byteOffset": 1572768,
      "componentType": 5126,
      "count": 65533,
      "max": [
        100.0,
        72.24232482910156,
        100.0
      ],
      "min": [
        -99.98999786376953,
        0.0,
        -100.0
      ],
      "type": "VEC3"
    },
    {
      "bufferView": 1,
      "byteOffset": 2359164,
      "componentType": 5126,
      "count": 65533,
      "max": [
        1.0,
        1.0,
        1.0
      ],
      "min": [
        -1.0,
        -1.0,
        -1.0
      ],
      "type": "VEC3"
    },
    {
      "bufferView": 2,
      "byteOffset": 1048512,
      "componentType": 5126,
      "count": 65533,
      "max": [
        1.0,
        1.0,
        1.0,
        1.0
      ],
      "min": [
        0.0235294122248888,
        0.0235294122248888,
        0.0,
        0.09803921729326248
      ],
      "type": "VEC4"
    },
    {
      "bufferView": 0,
      "byteOffset": 366888,
      "componentType": 5125,
      "count": 75315,
      "type": "SCALAR"
    },
    {
      "bufferView": 1,
      "byteOffset": 3145560,
      "componentType": 5126,
      "count": 5031,
      "max": [
        13.29584789276123,
        68.00382232666016,
        -22.902475357055664
      ],
      "min": [
        2.1659505367279053,
        61.404090881347656,
        -32.75062561035156
      ],
      "type": "VEC3"
    },
    {
      "bufferView": 1,
      "byteOffset": 3205932,
      "componentType": 5126,
      "count": 5031,
      "max": [
        0.9999718070030212,
        0.9999649524688721,
        0.9999997019767761
      ],
      "min": [
        -0.9999961256980896,
        -0.9999874830245972,
        -0.9999991655349731
      ],
      "type": "VEC3"
    },
    {
      "bufferView": 2,
      "byteOffset": 2097040,
      "componentType": 5126,
      "count": 5031,
      "max": [
        1.0,
        1.0,
        1.0,
        1.0
      ],
      "min": [
        0.08627451211214066,
        0.08627451211214066,
        0.08235294371843338,
        0.09803921729326248
      ],
      "type": "VEC4"
    },
    {
      "bufferView": 0,
      "byteOffset": 668148,
      "componentType": 5125,
      "count": 7545,
      "type": "SCALAR"
    }
  ],
  "asset": {
    "extras": {
      "author": "Robert Kotsch (https://sketchfab.com/robertkotsch)",
      "license": "CC-BY-4.0 (http://creativecommons.org/licenses/by/4.0/)",
      "source": "https://sketchfab.com/3d-models/isometric-low-poly-landscape-702c70d6e14444a7842857f6155905e9",
      "title": "Isometric Low-Poly Landscape"
    },
    "generator": "Sketchfab-16.8.0",
    "version": "2.0"
  },
  "bufferViews": [
    {
      "buffer": 0,
      "byteLength": 698328,
      "name": "floatBufferViews",
      "target": 34963
    },
    {
      "buffer": 0,
      "byteLength": 3266304,
      "byteOffset": 698328,
      "byteStride": 12,
      "name": "floatBufferViews",
      "target": 34962
    },
    {
      "buffer": 0,
      "byteLength": 2177536,
      "byteOffset": 3964632,
      "byteStride": 16,
      "name": "floatBufferViews",
      "target": 34962
    }
  ],
  "buffers": [
    {
      "byteLength": 6142168,
      "uri": "scene.bin"
    }
  ],
  "extensionsUsed": [
    "KHR_materials_transmission",
    "KHR_materials_specular"
  ],
  "materials": [
    {
      "doubleSided": true,
      "extensions": {
        "KHR_materials_specular": {
          "specularColorFactor": [
            1.0,
            1.0,
            1.0
          ],
          "specularFactor": 0.5955518373347669
        },
        "KHR_materials_transmission": {
          "transmissionFactor": 0.0
        }
      },
      "name": "Scene_-_Root",
      "pbrMetallicRoughness": {
        "baseColorFactor": [
          0.5469636284783511,
          0.5469636284783511,
          0.5469636284783511,
          1.0
        ],
        "metallicFactor": 0.0,
        "roughnessFactor": 0.5105224718360393
      }
    }
  ],
  "meshes": [
    {
      "name": "geo1__0",
      "primitives": [
        {
          "attributes": {
            "COLOR_0": 2,
            "NORMAL": 1,
            "POSITION": 0
          },
          "indices": 3,
          "material": 0,
          "mode": 4
        }
      ]
    },
    {
      "name": "geo1__0",
      "primitives": [
        {
          "attributes": {
            "COLOR_0": 6,
            "NORMAL": 5,
            "POSITION": 4
          },
          "indices": 7,
          "material": 0,
          "mode": 4
        }
      ]
    },
    {
      "name": "geo1__0",
      "primitives": [
        {
          "attributes": {
            "COLOR_0": 10,
            "NORMAL": 9,
            "POSITION": 8
          },
          "indices": 11,
          "material": 0,
          "mode": 4
        }
      ]
    }
  ],
  "nodes": [
    {
      "children": [
        1
      ],
      "matrix": [
        1.0,
        0.0,
        0.0,
        0.0,
        0.0,
        2.220446049250313e-16,
        -1.0,
        0.0,
        0.0,
        1.0,
        2.220446049250313e-16,
        0.0,
        0.0,
        0.0,
        0.0,
        1.0
      ],
      "name": "Sketchfab_model"
    },
    {
      "children": [
        2
      ],
      "matrix": [
        0.009999999776482582,
        0.0,
        0.0,
        0.0,
        0.0,
        0.0,
        0.009999999776482582,
        0.0,
        0.0,
        -0.009999999776482582,
        0.0,
        0.0,
        0.0,
        0.0,
        0.0,
        1.0
      ],
      "name": "mesh.fbx"
    },
    {
      "children": [
        3
      ],
      "name": "RootNode"
    },
    {
      "children": [
        4,
        5,
        6
      ],
      "name": "geo1"
    },
    {
      "mesh": 0,
      "name": "geo1__0"
    },
    {
      "mesh": 1,
      "name": "geo1__0"
    },
    {
      "mesh": 2,
      "name": "geo1__0"
    }
  ],
  "scene": 0,
  "scenes": [
    {
      "name": "Sketchfab_Scene",
      "nodes": [
        0
      ]
    }
  ]
}
