{
	"asset":{
		"generator":"Khronos glTF Blender I/O v4.1.63",
		"version":"2.0"
	},
	"scene":0,
	"scenes":[
		{
			"name":"Scene",
			"nodes":[
				10
			]
		}
	],
	"nodes":[
		{
			"mesh":0,
			"name":"JejungwonHospital_Etc_JejungwonHospital_Etc_0",
			"translation":[
				0,
				0,
				-3.051757266803179e-05
			]
		},
		{
			"mesh":1,
			"name":"JejungwonHospital_Etc_JejungwonHospital_Etc_0.001",
			"translation":[
				0,
				0,
				-3.051757266803179e-05
			]
		},
		{
			"children":[
				0,
				1
			],
			"name":"Object_8",
			"translation":[
				0,
				7.897004252299666e-05,
				484.7146301269531
			]
		},
		{
			"children":[
				2
			],
			"name":"JejungwonHospital_Etc",
			"translation":[
				0,
				-3.0517576306010596e-05,
				0
			]
		},
		{
			"mesh":2,
			"name":"JejungwonHospital_WallRoof_JejungwonHospital_WallRoof_0",
			"translation":[
				0,
				-3.051757266803179e-05,
				0
			]
		},
		{
			"children":[
				4
			],
			"name":"Object_5",
			"translation":[
				0,
				349.9999694824219,
				-5.70222400710918e-05
			]
		},
		{
			"children":[
				5
			],
			"name":"JejungwonHospital_WallRoof",
			"translation":[
				0,
				0,
				3.0517576306010596e-05
			]
		},
		{
			"children":[
				3,
				6
			],
			"name":"JejungwonHospital"
		},
		{
			"children":[
				7
			],
			"name":"RootNode"
		},
		{
			"children":[
				8
			],
			"name":"8260b432a10c408490124f4083ecdc8b.fbx",
			"rotation":[
				0.70710688829422,
				0,
				0,
				0.7071066498756409
			],
			"scale":[
				0.009999999776482582,
				0.010000000707805157,
				0.010000000707805157
			]
		},
		{
			"children":[
				9
			],
			"name":"Sketchfab_model.002",
			"rotation":[
				-0.70710688829422,
				0,
				0,
				0.7071066498756409
			]
		}
	],
	"materials":[
		{
			"doubleSided":true,
			"name":"JejungwonHospital_Etc",
			"normalTexture":{
				"index":0
			},
			"pbrMetallicRoughness":{
				"baseColorTexture":{
					"index":1
				},
				"metallicRoughnessTexture":{
					"index":2
				}
			}
		},
		{
			"doubleSided":true,
			"name":"JejungwonHospital_WallRoof",
			"normalTexture":{
				"index":3
			},
			"pbrMetallicRoughness":{
				"baseColorTexture":{
					"index":4
				},
				"metallicRoughnessTexture":{
					"index":5
				}
			}
		}
	],
	"meshes":[
		{
			"name":"JejungwonHospital_Etc_JejungwonHospital_Etc_0",
			"primitives":[
				{
					"attributes":{
						"POSITION":0,
						"NORMAL":1,
						"TEXCOORD_0":2
					},
					"indices":3,
					"material":0
				}
			]
		},
		{
			"name":"JejungwonHospital_Etc_JejungwonHospital_Etc_0.001",
			"primitives":[
				{
					"attributes":{
						"POSITION":4,
						"NORMAL":5,
						"TEXCOORD_0":6
					},
					"indices":7,
					"material":0
				}
			]
		},
		{
			"name":"JejungwonHospital_WallRoof_JejungwonHospital_WallRoof_0",
			"primitives":[
				{
					"attributes":{
						"POSITION":8,
						"NORMAL":9,
						"TEXCOORD_0":10
					},
					"indices":11,
					"material":1
				}
			]
		}
	],
	"textures":[
		{
			"sampler":0,
			"source":0
		},
		{
			"sampler":0,
			"source":1
		},
		{
			"sampler":0,
			"source":2
		},
		{
			"sampler":0,
			"source":3
		},
		{
			"sampler":0,
			"source":4
		},
		{
			"sampler":0,
			"source":5
		}
	],
	"images":[
		{
			"mimeType":"image/jpeg",
			"name":"JejungwonHospital_Etc_normal",
			"uri":"JejungwonHospital_Etc_normal.jpg"
		},
		{
			"mimeType":"image/jpeg",
			"name":"JejungwonHospital_Etc_baseColor",
			"uri":"JejungwonHospital_Etc_baseColor.jpg"
		},
		{
			"mimeType":"image/jpeg",
			"name":"JejungwonHospital_Etc_metallicRoughness",
			"uri":"JejungwonHospital_Etc_metallicRoughness.jpg"
		},
		{
			"mimeType":"image/jpeg",
			"name":"JejungwonHospital_WallRoof_normal",
			"uri":"JejungwonHospital_WallRoof_normal.jpg"
		},
		{
			"mimeType":"image/jpeg",
			"name":"JejungwonHospital_WallRoof_baseColor",
			"uri":"JejungwonHospital_WallRoof_baseColor.jpg"
		},
		{
			"mimeType":"image/jpeg",
			"name":"JejungwonHospital_WallRoof_metallicRoughness",
			"uri":"JejungwonHospital_WallRoof_metallicRoughness.jpg"
		}
	],
	"accessors":[
		{
			"bufferView":0,
			"componentType":5126,
			"count":72560,
			"max":[
				1546.87744140625,
				1227.1866455078125,
				557.533935546875
			],
			"min":[
				-1546.87744140625,
				-2.288818359375e-05,
				-1289.01904296875
			],
			"type":"VEC3"
		},
		{
			"bufferView":1,
			"componentType":5126,
			"count":72560,
			"type":"VEC3"
		},
		{
			"bufferView":2,
			"componentType":5126,
			"count":72560,
			"type":"VEC2"
		},
		{
			"bufferView":3,
			"componentType":5125,
			"count":132435,
			"type":"SCALAR"
		},
		{
			"bufferView":4,
			"componentType":5126,
			"count":14309,
			"max":[
				1391.929931640625,
				620.1333618164062,
				170.989501953125
			],
			"min":[
				-1391.9300537109375,
				86.71202850341797,
				-8.499298095703125
			],
			"type":"VEC3"
		},
		{
			"bufferView":5,
			"componentType":5126,
			"count":14309,
			"type":"VEC3"
		},
		{
			"bufferView":6,
			"componentType":5126,
			"count":14309,
			"type":"VEC2"
		},
		{
			"bufferView":7,
			"componentType":5123,
			"count":21579,
			"type":"SCALAR"
		},
		{
			"bufferView":8,
			"componentType":5126,
			"count":3001,
			"max":[
				1532.5400390625,
				874.1866455078125,
				677.6400146484375
			],
			"min":[
				-1532.5400390625,
				-350,
				-804.3043212890625
			],
			"type":"VEC3"
		},
		{
			"bufferView":9,
			"componentType":5126,
			"count":3001,
			"type":"VEC3"
		},
		{
			"bufferView":10,
			"componentType":5126,
			"count":3001,
			"type":"VEC2"
		},
		{
			"bufferView":11,
			"componentType":5123,
			"count":6870,
			"type":"SCALAR"
		}
	],
	"bufferViews":[
		{
			"buffer":0,
			"byteLength":870720,
			"byteOffset":0,
			"target":34962
		},
		{
			"buffer":0,
			"byteLength":870720,
			"byteOffset":870720,
			"target":34962
		},
		{
			"buffer":0,
			"byteLength":580480,
			"byteOffset":1741440,
			"target":34962
		},
		{
			"buffer":0,
			"byteLength":529740,
			"byteOffset":2321920,
			"target":34963
		},
		{
			"buffer":0,
			"byteLength":171708,
			"byteOffset":2851660,
			"target":34962
		},
		{
			"buffer":0,
			"byteLength":171708,
			"byteOffset":3023368,
			"target":34962
		},
		{
			"buffer":0,
			"byteLength":114472,
			"byteOffset":3195076,
			"target":34962
		},
		{
			"buffer":0,
			"byteLength":43158,
			"byteOffset":3309548,
			"target":34963
		},
		{
			"buffer":0,
			"byteLength":36012,
			"byteOffset":3352708,
			"target":34962
		},
		{
			"buffer":0,
			"byteLength":36012,
			"byteOffset":3388720,
			"target":34962
		},
		{
			"buffer":0,
			"byteLength":24008,
			"byteOffset":3424732,
			"target":34962
		},
		{
			"buffer":0,
			"byteLength":13740,
			"byteOffset":3448740,
			"target":34963
		}
	],
	"samplers":[
		{
			"magFilter":9729,
			"minFilter":9987
		}
	],
	"buffers":[
		{
			"byteLength":3462480,
			"uri":"scene.bin"
		}
	]
}
