{
	"asset":{
		"generator":"Khronos glTF Blender I/O v4.1.63",
		"version":"2.0"
	},
	"extensionsUsed":[
		"KHR_materials_unlit"
	],
	"scene":0,
	"scenes":[
		{
			"name":"Scene",
			"nodes":[
				0
			]
		}
	],
	"nodes":[
		{
			"mesh":0,
			"name":"Arts lvl3 opera_genericEU_0",
			"scale":[
				0.009999999776482582,
				0.010000001639127731,
				0.010000001639127731
			],
			"translation":[
				-0.00025837536668404937,
				0.00013466000382322818,
				0.000297784514259547
			]
		}
	],
	"materials":[
		{
			"doubleSided":true,
			"extensions":{
				"KHR_materials_unlit":{}
			},
			"name":"genericEU",
			"pbrMetallicRoughness":{
				"baseColorTexture":{
					"index":0
				},
				"metallicFactor":0,
				"roughnessFactor":0.9
			}
		}
	],
	"meshes":[
		{
			"name":"Arts lvl3 opera_genericEU_0",
			"primitives":[
				{
					"attributes":{
						"POSITION":0,
						"NORMAL":1,
						"TEXCOORD_0":2,
						"TEXCOORD_1":3,
						"TEXCOORD_2":4,
						"TEXCOORD_3":5,
						"TEXCOORD_4":6,
						"TEXCOORD_5":7,
						"TEXCOORD_6":8,
						"TEXCOORD_7":9
					},
					"indices":10,
					"material":0
				}
			]
		}
	],
	"textures":[
		{
			"sampler":0,
			"source":0
		}
	],
	"images":[
		{
			"mimeType":"image/png",
			"name":"genericEU_baseColor",
			"uri":"genericEU_baseColor.png"
		}
	],
	"accessors":[
		{
			"bufferView":0,
			"componentType":5126,
			"count":3325,
			"max":[
				-0.2607332468032837,
				0.27293121814727783,
				-0.18720543384552002
			],
			"min":[
				-0.7866287231445312,
				-0.0014488697052001953,
				-0.8275649547576904
			],
			"type":"VEC3"
		},
		{
			"bufferView":1,
			"componentType":5126,
			"count":3325,
			"type":"VEC3"
		},
		{
			"bufferView":2,
			"componentType":5126,
			"count":3325,
			"type":"VEC2"
		},
		{
			"bufferView":3,
			"componentType":5126,
			"count":3325,
			"type":"VEC2"
		},
		{
			"bufferView":4,
			"componentType":5126,
			"count":3325,
			"type":"VEC2"
		},
		{
			"bufferView":5,
			"componentType":5126,
			"count":3325,
			"type":"VEC2"
		},
		{
			"bufferView":6,
			"componentType":5126,
			"count":3325,
			"type":"VEC2"
		},
		{
			"bufferView":7,
			"componentType":5126,
			"count":3325,
			"type":"VEC2"
		},
		{
			"bufferView":8,
			"componentType":5126,
			"count":3325,
			"type":"VEC2"
		},
		{
			"bufferView":9,
			"componentType":5126,
			"count":3325,
			"type":"VEC2"
		},
		{
			"bufferView":10,
			"componentType":5123,
			"count":6882,
			"type":"SCALAR"
		}
	],
	"bufferViews":[
		{
			"buffer":0,
			"byteLength":39900,
			"byteOffset":0,
			"target":34962
		},
		{
			"buffer":0,
			"byteLength":39900,
			"byteOffset":39900,
			"target":34962
		},
		{
			"buffer":0,
			"byteLength":26600,
			"byteOffset":79800,
			"target":34962
		},
		{
			"buffer":0,
			"byteLength":26600,
			"byteOffset":106400,
			"target":34962
		},
		{
			"buffer":0,
			"byteLength":26600,
			"byteOffset":133000,
			"target":34962
		},
		{
			"buffer":0,
			"byteLength":26600,
			"byteOffset":159600,
			"target":34962
		},
		{
			"buffer":0,
			"byteLength":26600,
			"byteOffset":186200,
			"target":34962
		},
		{
			"buffer":0,
			"byteLength":26600,
			"byteOffset":212800,
			"target":34962
		},
		{
			"buffer":0,
			"byteLength":26600,
			"byteOffset":239400,
			"target":34962
		},
		{
			"buffer":0,
			"byteLength":26600,
			"byteOffset":266000,
			"target":34962
		},
		{
			"buffer":0,
			"byteLength":13764,
			"byteOffset":292600,
			"target":34963
		}
	],
	"samplers":[
		{
			"magFilter":9729,
			"minFilter":9987
		}
	],
	"buffers":[
		{
			"byteLength":306364,
			"uri":"theatre.bin"
		}
	]
}
